<?xml version="1.0" encoding="utf-8"?>
<!-- Generator: Adobe Illustrator 16.0.0, SVG Export Plug-In . SVG Version: 6.00 Build 0)  -->
<!DOCTYPE svg PUBLIC "-//W3C//DTD SVG 1.1//EN" "http://www.w3.org/Graphics/SVG/1.1/DTD/svg11.dtd">
<svg version="1.1" id="Layer_1" xmlns="http://www.w3.org/2000/svg" xmlns:xlink="http://www.w3.org/1999/xlink" x="0px" y="0px"
	 width="220px" height="45px" viewBox="0 0 220 45" enable-background="new 0 0 220 45" xml:space="preserve">
<g enable-background="new    ">
	<path fill="#CC4E4E" d="M6.993,37.179c3.269-9.46,5.746-18.873,7.428-28.238l12.381-1.619c1.492,8.476,4.111,18.223,7.857,29.238
		l-9.381,1.952l-1.333-5.19l-6.143,0.571l-1.048,5.238L6.993,37.179z M22.754,27.798l-2.333-10.953l-1.905,11L22.754,27.798z"/>
	<path fill="#CC4E4E" d="M35.136,22.464c-0.318-7.84-0.541-12.11-0.667-12.809c2.603-1.016,5.572-1.54,8.905-1.571
		C46.77,8.02,49.58,8.576,51.802,9.75c2.349,1.302,3.603,2.984,3.762,5.047c0.19,2.318-1.111,4.541-3.905,6.667
		c3.333,0.381,5.683,1.922,7.048,4.619c0.635,1.144,0.841,2.365,0.619,3.667c-0.223,1.397-0.921,2.667-2.095,3.81
		c-2.508,2.604-5.842,4.19-10,4.762c-2.921,0.477-6.842,0.523-11.762,0.143C35.659,33.448,35.548,28.115,35.136,22.464z
		 M42.326,19.654c2.603-0.476,4.206-1.253,4.81-2.333c1.111-2,0.459-3.095-1.953-3.286c-1.047-0.095-2.159,0-3.333,0.286
		L42.326,19.654z M43.041,31.654c1.619,0.096,2.968,0,4.047-0.285c1.555-0.381,2.476-1.096,2.762-2.143
		c0.381-1.429-0.254-2.429-1.905-3c-1.556-0.477-3.254-0.46-5.095,0.047L43.041,31.654z"/>
	<path fill="#CC4E4E" d="M60.897,9.274l4.857-0.619l4.81-0.714c-0.667,5.524-1.08,10.683-1.238,15.477
		c-0.095,4.73,0.031,9.095,0.381,13.095L65.42,37.56l-4.476,0.762L60.897,9.274z"/>
	<path fill="#CC4E4E" d="M72.563,9.321l9.381-1.333c-0.794,7.651-1.159,14.666-1.095,21.048l9.857-1.144l1,7.715
		c-5.143,0.285-11.524,1.237-19.143,2.856V9.321z"/>
	<path fill="#CC4E4E" d="M92.754,9.274l4.857-0.619l4.81-0.714c-0.667,5.524-1.08,10.683-1.238,15.477
		c-0.095,4.73,0.031,9.095,0.381,13.095l-4.286,1.048l-4.476,0.762L92.754,9.274z"/>
	<path fill="#CC4E4E" d="M128.372,15.369c-4.031,0.222-6.904,0.397-8.619,0.523c-0.35,3.334,0.08,10.588,1.287,21.762l-10.097,1.857
		l-0.047-22.952c-0.572,0.032-1.762,0.175-3.572,0.429c-1.683,0.159-3.032,0.285-4.047,0.381l0.571-7.953l22.953-1.905
		L128.372,15.369z"/>
	<path fill="#CC4E4E" d="M152.896,15.369c-4.032,0.222-6.905,0.397-8.619,0.523c-0.35,3.334,0.079,10.588,1.286,21.762
		l-10.096,1.857L135.42,16.56c-0.571,0.032-1.762,0.175-3.571,0.429c-1.683,0.159-3.032,0.285-4.048,0.381l0.572-7.953l22.952-1.905
		L152.896,15.369z"/>
	<path fill="#CC4E4E" d="M153.943,9.274l4.857-0.619l4.81-0.714c-0.667,5.524-1.08,10.683-1.238,15.477
		c-0.095,4.73,0.031,9.095,0.381,13.095l-4.285,1.048l-4.477,0.762L153.943,9.274z"/>
	<path fill="#CC4E4E" d="M180.086,15.369c-1.746,0.222-3.381,0.397-4.904,0.523c-0.159,0.953-0.255,1.651-0.286,2.096l-0.095,2.048
		l4-0.572l3.81-0.571l0.333,2.81l0.381,2.905c-2.476,0.35-4.111,0.588-4.904,0.714c-1.334,0.223-2.54,0.413-3.619,0.571
		l-0.096,3.857l5.238-0.667l5.238-0.714l0.523,3.904l0.524,3.763c-2.667,0.159-5.699,0.46-9.096,0.904
		c-3.397,0.54-7.127,1.19-11.19,1.952c-0.032-1.65-0.063-4.095-0.095-7.333l-0.144-7.429c-0.063-6.508-0.095-11.429-0.095-14.762
		l9.238-0.953l9.333-1.047l0.571,3.81l0.619,3.857C183.53,15.131,181.769,15.243,180.086,15.369z"/>
	<path fill="#CC4E4E" d="M210.562,13.179c0.19,0.952,0.381,2.016,0.571,3.19c-0.889,0.317-2.254,0.73-4.095,1.238l-4.143,1.19
		c-0.255-1.238-0.89-1.857-1.905-1.857c-1.429,0-2.73,0.54-3.904,1.619c-0.731,0.889-0.969,1.73-0.715,2.523
		c0.286,0.477,1.127,0.715,2.524,0.715c0.697,0,1.618-0.079,2.762-0.238c1.619-0.222,3.063-0.333,4.333-0.333
		c3.206,0,5.286,0.794,6.238,2.381c0.285,0.54,0.492,1.047,0.619,1.523c0.444,1.778-0.048,3.683-1.477,5.714
		c-1.746,2.667-4.556,4.922-8.429,6.763c-1.969,0.921-4.047,1.381-6.237,1.381c-1.969,0-4-0.381-6.096-1.144
		c0.571-1.649,1.508-4.11,2.81-7.381c1.396,0.667,2.793,1,4.19,1c0.571,0,1.158-0.078,1.762-0.237
		c1.174-0.222,2.222-0.54,3.143-0.953c1.365-0.571,1.984-1.174,1.857-1.81c-0.159-0.729-1.017-1.095-2.571-1.095
		c-1.143,0-2.667,0.143-4.571,0.429c-1.937,0.381-3.461,0.571-4.571,0.571c-1.397,0-2.524-0.206-3.381-0.619
		c-1.684-0.698-2.556-1.81-2.619-3.333c-0.254-3.016,1.571-6.508,5.476-10.477c4.063-4.159,7.953-6.349,11.667-6.571
		C207.324,7.274,209.578,9.21,210.562,13.179z"/>
</g>
</svg>
