<?xml version="1.0" encoding="utf-8"?>
<!-- Generator: Adobe Illustrator 16.0.0, SVG Export Plug-In . SVG Version: 6.00 Build 0)  -->
<!DOCTYPE svg PUBLIC "-//W3C//DTD SVG 1.1//EN" "http://www.w3.org/Graphics/SVG/1.1/DTD/svg11.dtd">
<svg version="1.1" id="camera" xmlns="http://www.w3.org/2000/svg" xmlns:xlink="http://www.w3.org/1999/xlink" x="0px" y="0px"
	 width="142px" height="100px" viewBox="0 0 142 100" enable-background="new 0 0 142 100" xml:space="preserve">
<g>
	<path fill="#CC4E4E" d="M79.352,22.589c-3.562-1.114-6.52,1.82-7.364,4.931c-1.648,6.083,1.663,12.062,7.901,13.871
		c5.408,1.569,11.052-0.738,13.811-5.482c1.328-2.284,2.058-5.281,1.225-7.847c-1.318-4.064-5.908-3.604-9.385-3.407
		c-0.015,0.001-0.027-0.005-0.042-0.006c-0.013,0.595-0.022,1.189-0.028,1.786c0.537-0.019,1.084-0.215,1.611-0.543
		c0.196-0.125,0.478,0.129,0.333,0.323c-0.953,1.284-3.227,0.988-4.078-0.238c-0.154-0.222,0.19-0.467,0.376-0.281
		c0.407,0.413,0.853,0.636,1.315,0.711c-0.037-0.597-0.063-1.195-0.079-1.796C82.867,24.798,81.287,23.194,79.352,22.589"/>
	<g opacity="0.3">
		<g>
			<defs>
				<rect id="SVGID_1_" x="72.774" y="31.97" width="22.365" height="9.909"/>
			</defs>
			<clipPath id="SVGID_2_">
				<use xlink:href="#SVGID_1_"  overflow="visible"/>
			</clipPath>
			<path clip-path="url(#SVGID_2_)" fill="#EF5883" d="M72.774,35.671c1.366,2.665,3.835,4.769,7.113,5.72
				c5.409,1.569,11.053-0.738,13.812-5.482c0.684-1.175,1.205-2.542,1.441-3.939c-2.635,2.324-5.903,4.005-9.106,4.891
				C81.551,37.946,77.067,37.241,72.774,35.671"/>
		</g>
	</g>
	<path fill="#F48DAB" d="M77.645,26.377c0.451,0.101,0.916,0.15,1.379,0.145c0.576-0.007,1.241-0.161,1.482-0.666
		c0.212-0.446-0.021-0.996-0.407-1.314c-0.385-0.317-0.884-0.468-1.373-0.592c-0.644-0.164-1.249-0.183-1.861-0.062
		c-0.606,0.121-1.21,0.619-1.13,1.212c0.07,0.508,0.589,0.837,1.081,1.026C77.084,26.23,77.361,26.313,77.645,26.377"/>
	<path fill="#F9CC10" d="M81.65,82.476c1.337-5.553,2.63-11.114,3.888-16.684c-1.275-0.532-2.538-1.1-3.802-1.665
		c-0.9,5.822-2.075,11.624-3.179,17.413c-1.121,5.885-1.956,11.938-3.609,17.713c0.915,0.006,1.833-0.01,2.753-0.049
		C78.785,93.591,80.312,88.035,81.65,82.476"/>
	<path fill="#F9CC10" d="M74.379,99.251c1.133-5.861,2.427-11.698,3.56-17.564c1.142-5.902,2.031-11.882,3.38-17.746
		c-1.597-0.712-3.2-1.411-4.834-2.026c-0.294,6.289-1.238,12.587-2.113,18.817c-0.459,3.278-0.938,6.553-1.411,9.83
		c-0.413,2.865-0.675,5.786-1.224,8.634c0.846,0.027,1.69,0.043,2.527,0.055C74.302,99.251,74.341,99.251,74.379,99.251"/>
	<path fill="#F9CC10" d="M92.548,82.745c1.422-4.694,2.645-9.48,4.242-14.121c-0.937-0.015-1.88-0.108-2.8-0.251
		c0.004,0.028,0.003,0.062-0.006,0.097c-1.407,4.963-3.029,9.87-4.417,14.84c-1.356,4.855-2.54,9.749-3.809,14.625
		c0.82-0.272,1.589-0.617,2.348-0.977C89.504,92.199,91.11,87.493,92.548,82.745"/>
	<path fill="#F9CC10" d="M89.77,67.362c-1.293-0.406-2.558-0.882-3.808-1.395c-1.087,5.591-2.398,11.14-3.722,16.684
		c-1.313,5.5-2.494,11.049-3.914,16.524c0.992-0.056,1.981-0.147,2.964-0.278C84.1,88.392,86.629,77.783,89.77,67.362"/>
	<path fill="#F9CC10" d="M93.552,68.342c0.006-0.016,0.015-0.026,0.021-0.038c-0.734-0.127-1.452-0.287-2.134-0.462
		c-0.418-0.106-0.831-0.225-1.242-0.349C87.415,77.911,85.048,88.47,81.933,98.8c1.068-0.165,2.126-0.379,3.167-0.664
		c0.001-0.007-0.002-0.013,0.001-0.019c1.096-5.03,2.479-10.023,3.884-14.979C90.388,78.187,91.778,73.184,93.552,68.342"/>
	<path fill="#F9CC10" d="M72.418,89.907c0.457-3.17,0.934-6.337,1.387-9.509c0.889-6.207,1.533-12.422,2.227-18.648
		c-1.389-0.506-2.807-0.944-4.255-1.256c-0.607,6.424-1.369,12.829-1.813,19.267c-0.218,3.165-0.339,6.331-0.647,9.488
		c-0.319,3.264-0.678,6.516-0.742,9.794c0.871,0.059,1.74,0.102,2.606,0.133C71.379,96.079,71.976,92.977,72.418,89.907"/>
	<path fill="#F9CC10" d="M68.024,99.007c0.061-3.271,0.417-6.518,0.735-9.771c0.308-3.16,0.43-6.325,0.647-9.49
		c0.443-6.463,1.135-12.917,1.891-19.354c-1.041-0.203-2.099-0.339-3.167-0.379c-0.609-0.024-1.21-0.011-1.81,0.029
		c-0.063,6.475-0.227,12.948-0.259,19.424c-0.03,6.441,0.009,12.902-0.33,19.336C66.494,98.883,67.26,98.952,68.024,99.007"/>
	<path fill="#F9CC10" d="M55.477,96.472c-0.866-5.486-1.516-11.011-2.356-16.504c-0.872-5.701-1.936-11.382-2.755-17.092
		c-0.011-0.064,0.008-0.12,0.038-0.164c-1.325,0.064-2.65,0.044-3.938-0.093c2.549,11.024,4.031,22.206,7.242,33.1
		C54.289,95.991,54.879,96.241,55.477,96.472"/>
	<path fill="#F9CC10" d="M62.017,98.272c-0.675-12.426-0.573-24.93-0.794-37.37c-0.981,0.228-1.961,0.466-2.946,0.68
		c-0.483,0.105-0.98,0.208-1.488,0.307c0.007,0.02,0.016,0.037,0.017,0.06c0.532,5.991,0.923,11.997,1.409,17.991
		c0.481,5.916,1.084,11.857,1.262,17.79C60.313,97.938,61.162,98.116,62.017,98.272"/>
	<path fill="#F9CC10" d="M65.704,98.853c-0.021-6.433-0.078-12.859-0.226-19.29c-0.147-6.443-0.404-12.929-0.15-19.373
		c-1.42,0.167-2.812,0.481-4.197,0.835c0.97,12.477,1.5,25.031,2.006,37.533C63.988,98.678,64.844,98.775,65.704,98.853"/>
	<path fill="#F9CC10" d="M94.959,81.617c1.213-4.578,2.109-9.211,3.177-13.82c-0.385,0.049-0.774,0.081-1.167,0.097
		c-1.022,4.837-2.479,9.621-3.787,14.392c-1.266,4.62-2.464,9.286-3.943,13.851c0.523-0.269,1.053-0.533,1.601-0.778
		C92.005,90.741,93.737,86.233,94.959,81.617"/>
	<path fill="#F9CC10" d="M58.912,97.586c-0.517-5.879-0.836-11.779-1.295-17.662c-0.467-5.977-1.033-11.963-1.257-17.954
		c-1.781,0.335-3.683,0.61-5.592,0.722c0.016,0.023,0.027,0.048,0.035,0.08c1.211,5.745,2.056,11.582,2.957,17.381
		c0.854,5.502,1.779,11.026,2.363,16.563C57.038,97.048,57.969,97.335,58.912,97.586"/>
	<path fill="#F9CC10" d="M43.536,62.072c1.35,5.361,2.459,10.786,3.661,16.178c1.211,5.441,2.56,10.785,4.056,16.153
		c0.57,0.347,1.151,0.67,1.744,0.97c-3.122-10.698-5.316-21.815-6.992-32.806C45.161,62.459,44.333,62.297,43.536,62.072"/>
	<path fill="#4E8259" d="M104.396,62.717c2.414-5.153,2.026-11.994,0.481-17.328c-1.417-4.892-4.54-9.534-9.568-11.45
		c-1.22,3.638-4.191,6.735-7.947,7.99c-4.47,1.495-9.724,0.192-13.06-3.006c-3.331-3.196-4.396-8.657-2.483-12.861
		c-11.292-0.939-22.756,3.367-30.11,11.799c-3.501,4.015-6.148,9.158-5.906,14.522c0.128,2.821,1.079,5.826,3.301,7.771
		c2.097,1.835,5.03,2.313,7.763,2.363c2.981,0.053,5.988-0.277,8.905-0.871c2.725-0.558,5.361-1.478,8.103-1.957
		c4.511-0.789,8.903,0.141,13.136,1.676c4.449,1.613,8.694,3.776,13.292,4.996C95.325,67.693,101.869,68.111,104.396,62.717"/>
	<g opacity="0.2">
		<g>
			<defs>
				<rect id="SVGID_3_" x="35.85" y="35.732" width="69.349" height="31.485"/>
			</defs>
			<clipPath id="SVGID_4_">
				<use xlink:href="#SVGID_3_"  overflow="visible"/>
			</clipPath>
			<path clip-path="url(#SVGID_4_)" fill="#984F3D" d="M70.902,37.739c-0.34,0.985,0.397,2.411,1.645,3.453
				c6.744,4.933,15.188,5.536,21.309,0.274c1.964-1.741,1.798-3.787,0.684-5.734c-1.483,2.838-4.058,5.155-7.178,6.197
				c-4.47,1.495-9.724,0.192-13.06-3.006c-0.89-0.854-1.612-1.872-2.165-2.98C71.508,36.417,71.179,36.941,70.902,37.739"/>
			<path clip-path="url(#SVGID_4_)" fill="#984F3D" d="M94.876,63.83c-10.201-1.316-18.617-8.479-29.243-6.578
				c-16.549,2.96-23.677,4.487-29.783-4.206c0.238,2.619,1.205,5.315,3.253,7.107c2.097,1.835,5.03,2.313,7.763,2.362
				c2.982,0.054,5.988-0.276,8.905-0.871c2.725-0.557,5.361-1.477,8.103-1.956c4.511-0.789,8.903,0.141,13.136,1.676
				c4.449,1.613,8.694,3.775,13.292,4.996c5.024,1.333,11.568,1.751,14.095-3.644c0.315-0.672,0.579-1.374,0.803-2.096
				C102.055,62.678,98.852,64.436,94.876,63.83"/>
		</g>
	</g>
	<path fill="#703327" d="M105.641,45.49c-1.439-5.255-4.761-10.172-10.13-12.211c0.129-0.476,0.234-0.956,0.302-1.443
		c0.315-2.294-0.016-4.931-1.955-6.504c-2.25-1.826-5.524-1.69-8.249-1.237c-0.028-0.021-0.06-0.04-0.098-0.048
		c0.086-3.332,0.3-6.637,0.864-9.949c0.629-3.69,1.305-8.555,4.115-11.365c3.135-3.135,8.429-2.127,10.615,1.521
		c1.03,1.72,1.332,4.032,0.228,5.793c-1.374,2.189-4.365,2.065-6.161,0.506c-0.219-0.189-0.505,0.095-0.319,0.309
		c2.69,3.091,7.323,0.961,7.773-2.673c0.484-3.906-2.881-7.659-6.892-7.951c-5.34-0.39-7.728,4.382-8.868,8.656
		c-1.3,4.877-2.002,10.103-1.929,15.191c-2.575,0.096-4.514-2.388-7.164-2.347c-2.211,0.037-4.226,1.397-5.349,3.189
		c-0.137,0.216-0.261,0.44-0.379,0.666c-10.79-1.212-21.821,2.749-29.354,10.302c-3.753,3.763-6.771,8.563-7.423,13.834
		c-0.587,4.745,0.925,10.33,5.82,12.399c0.457,0.192,0.928,0.357,1.41,0.5c1.231,5.596,2.73,11.146,4.125,16.703
		c1.306,5.213,2.204,10.931,4.558,15.818c0.059,0.12,0.175,0.149,0.285,0.124c2.293,1.804,5.26,2.723,8.11,3.291
		c4.962,0.991,10.19,1.271,15.244,1.213c5.211-0.057,12.312-0.468,16.452-4.087c0.08-0.07,0.094-0.15,0.072-0.224
		c1.838-4.241,2.951-8.944,4.125-13.389c1.248-4.719,2.469-9.521,3.163-14.352c2.227-0.369,4.246-1.34,5.582-3.312
		C107.732,59.223,107.211,51.218,105.641,45.49 M79.352,22.589c1.936,0.605,3.516,2.209,5.596,2.023
		c0.016,0.601,0.042,1.199,0.079,1.796c-0.463-0.075-0.909-0.298-1.316-0.711c-0.185-0.187-0.529,0.06-0.375,0.281
		c0.852,1.226,3.125,1.522,4.079,0.238c0.144-0.194-0.137-0.448-0.334-0.324c-0.527,0.329-1.074,0.526-1.611,0.544
		c0.006-0.597,0.016-1.191,0.028-1.786c0.015,0.001,0.027,0.007,0.042,0.006c3.477-0.197,8.066-0.657,9.385,3.407
		c0.833,2.565,0.104,5.563-1.226,7.847c-2.758,4.744-8.401,7.051-13.81,5.482c-6.238-1.81-9.549-7.789-7.9-13.872
		C72.831,24.409,75.789,21.475,79.352,22.589 M47.167,78.851c-1.354-5.356-2.618-10.751-4.119-16.073
		c0.804,0.203,1.635,0.343,2.481,0.428c1.988,10.941,4.497,21.997,7.923,32.608c-0.601-0.284-1.19-0.591-1.771-0.924
		C50.033,89.563,48.532,84.258,47.167,78.851 M69.59,89.258c0.219-3.165,0.25-6.333,0.378-9.503
		c0.261-6.447,0.84-12.87,1.265-19.308c1.455,0.274,2.887,0.674,4.289,1.142c-0.517,6.243-0.983,12.473-1.695,18.701
		c-0.363,3.183-0.749,6.361-1.116,9.543c-0.355,3.078-0.863,6.197-0.974,9.297c-0.867-0.009-1.737-0.028-2.609-0.062
		C69.098,95.788,69.363,92.527,69.59,89.258 M69.411,79.755c-0.127,3.17-0.159,6.337-0.377,9.503
		c-0.226,3.262-0.489,6.516-0.457,9.787c-0.766-0.034-1.532-0.083-2.297-0.144c0.155-6.441-0.067-12.899-0.219-19.339
		c-0.153-6.473-0.175-12.948-0.295-19.422c0.598-0.057,1.199-0.087,1.808-0.079c1.069,0.014,2.13,0.119,3.177,0.295
		C70.179,66.812,69.671,73.282,69.411,79.755 M65.479,79.562c0.146,6.432,0.204,12.857,0.226,19.29
		c-0.86-0.077-1.716-0.175-2.567-0.294c-0.506-12.503-1.036-25.058-2.006-37.534c1.386-0.354,2.778-0.668,4.197-0.835
		C65.073,66.633,65.331,73.119,65.479,79.562 M60.694,61.137c0.573,12.431,0.828,24.931,1.856,37.335
		c-0.858-0.134-1.712-0.289-2.557-0.475c-0.346-5.927-1.117-11.849-1.767-17.751c-0.656-5.979-1.219-11.971-1.919-17.947
		c-0.002-0.022-0.012-0.039-0.02-0.057c0.506-0.113,0.999-0.23,1.479-0.348C58.747,61.655,59.72,61.39,60.694,61.137 M55.865,62.334
		c0.393,5.981,1.129,11.951,1.765,17.912c0.627,5.869,1.114,11.759,1.798,17.621c-0.95-0.227-1.889-0.487-2.811-0.794
		c-0.742-5.52-1.825-11.018-2.835-16.496c-1.065-5.771-2.077-11.583-3.45-17.295c-0.009-0.031-0.021-0.057-0.036-0.077
		C52.2,63.042,54.093,62.716,55.865,62.334 M53.138,80.412c0.996,5.467,1.803,10.972,2.824,16.435
		c-0.604-0.215-1.201-0.451-1.79-0.706c-3.52-10.804-5.318-21.942-8.182-32.895c1.292,0.102,2.617,0.087,3.94-0.011
		c-0.029,0.043-0.046,0.099-0.034,0.162C50.878,69.084,52.103,74.734,53.138,80.412 M72.293,99.134
		c0.468-2.861,0.646-5.786,0.978-8.662c0.379-3.288,0.766-6.574,1.132-9.864c0.696-6.251,1.462-12.571,1.576-18.865
		c1.651,0.57,3.273,1.229,4.891,1.897c-1.182,5.896-1.901,11.898-2.874,17.828c-0.965,5.894-2.094,11.763-3.059,17.653
		c-0.039,0-0.077,0.001-0.115,0.001C73.983,99.133,73.141,99.139,72.293,99.134 M86.274,97.502
		c1.129-4.908,2.173-9.829,3.391-14.721c1.246-5.005,2.729-9.953,3.992-14.952c0.009-0.036,0.01-0.067,0.005-0.097
		c0.924,0.12,1.869,0.187,2.806,0.177c-1.465,4.681-2.551,9.498-3.839,14.229c-1.302,4.784-2.774,9.531-4.034,14.326
		C87.845,96.843,87.087,97.207,86.274,97.502 M93.223,67.712c-1.635,4.888-2.883,9.925-4.145,14.913
		c-1.264,4.991-2.505,10.019-3.457,15.076c-0.002,0.007,0.001,0.013,0,0.019c-1.031,0.314-2.083,0.556-3.146,0.748
		c2.819-10.408,4.886-21.026,7.37-31.514c0.415,0.113,0.831,0.22,1.252,0.316c0.687,0.156,1.408,0.296,2.146,0.404
		C93.236,67.687,93.227,67.697,93.223,67.712 M81.835,98.583c-0.979,0.158-1.965,0.274-2.955,0.357
		c1.264-5.512,2.286-11.09,3.442-16.623c1.165-5.576,2.318-11.159,3.246-16.775c1.264,0.48,2.542,0.921,3.846,1.292
		C86.571,77.334,84.344,88.005,81.835,98.583 M81.728,82.158c-1.181,5.593-2.548,11.188-3.472,16.827
		c-0.918,0.063-1.836,0.104-2.751,0.123c1.489-5.816,2.151-11.891,3.104-17.804c0.938-5.814,1.948-11.646,2.683-17.49
		c1.279,0.53,2.558,1.064,3.848,1.563C84.04,70.978,82.906,76.571,81.728,82.158 M94.959,81.617
		c-1.221,4.615-2.954,9.124-4.12,13.74c-0.548,0.245-1.077,0.51-1.601,0.778c1.48-4.564,2.679-9.23,3.943-13.851
		c1.308-4.771,2.765-9.555,3.787-14.392c0.393-0.016,0.782-0.048,1.168-0.097C97.068,72.406,96.172,77.039,94.959,81.617
		 M90.301,66.36c-4.598-1.221-8.843-3.383-13.292-4.996c-4.232-1.535-8.624-2.465-13.136-1.676
		c-2.741,0.479-5.378,1.399-8.103,1.956c-2.916,0.595-5.924,0.925-8.905,0.871c-2.732-0.049-5.666-0.527-7.763-2.362
		c-2.222-1.945-3.173-4.95-3.301-7.771c-0.242-5.364,2.405-10.506,5.906-14.522c7.354-8.432,18.818-12.738,30.11-11.799
		c-1.913,4.204-0.848,9.666,2.482,12.861c3.337,3.199,8.591,4.501,13.061,3.006c3.756-1.255,6.728-4.353,7.947-7.99
		c5.029,1.917,8.151,6.558,9.568,11.45c1.545,5.334,1.933,12.175-0.481,17.328C101.87,68.111,95.325,67.693,90.301,66.36"/>
</g>
</svg>
