<?xml version="1.0" encoding="utf-8"?>
<!-- Generator: Adobe Illustrator 16.0.0, SVG Export Plug-In . SVG Version: 6.00 Build 0)  -->
<!DOCTYPE svg PUBLIC "-//W3C//DTD SVG 1.1//EN" "http://www.w3.org/Graphics/SVG/1.1/DTD/svg11.dtd">
<svg version="1.1" id="camera" xmlns="http://www.w3.org/2000/svg" xmlns:xlink="http://www.w3.org/1999/xlink" x="0px" y="0px"
	 width="142px" height="100px" viewBox="0 0 142 100" enable-background="new 0 0 142 100" xml:space="preserve">
<g>
	<path fill="none" d="M45.168,57.232c0,15.968,12.978,28.913,28.99,28.913c16.01,0,28.993-12.945,28.993-28.913
		c0-15.972-12.983-28.917-28.993-28.917C58.146,28.316,45.168,41.261,45.168,57.232z M93.483,57.232
		c0,10.646-8.652,19.283-19.325,19.283c-10.679,0-19.33-8.638-19.33-19.283c0-10.651,8.651-19.276,19.33-19.276
		C84.831,37.957,93.483,46.582,93.483,57.232z"/>
	<path fill="#4E8259" d="M14.071,100h120.17c4.265,0,7.727-3.442,7.727-7.69V18.176c0-4.253-3.462-7.702-7.727-7.702h-3.532V7.058
		c0-0.682-0.559-1.229-1.232-1.229h-19.155c-0.678,0-1.224,0.547-1.224,1.229v3.417H94.589l-6.171-9.32
		c0-0.784-0.737-1.415-1.656-1.415h-8.416h-8.378H61.56c-0.914,0-1.662,0.631-1.662,1.415l-6.161,9.32H14.071
		c-4.258,0-7.723,3.448-7.723,7.702v5.154h-3.06c-1.801,0-3.257,1.46-3.257,3.255v9.936c0,1.792,1.456,3.25,3.257,3.25h3.06V92.31
		C6.349,96.558,9.813,100,14.071,100z M99.361,20.158h15.984h15.979v11.67h-15.979H99.361V20.158z M74.158,28.316
		c16.01,0,28.993,12.945,28.993,28.917c0,15.968-12.983,28.913-28.993,28.913c-16.013,0-28.99-12.945-28.99-28.913
		C45.168,41.261,58.146,28.316,74.158,28.316z M3.626,36.185v-9.263h2.723v9.263H3.626z"/>
	<path fill="#F9CC10" d="M54.828,57.232c0,10.646,8.651,19.283,19.33,19.283c10.673,0,19.325-8.638,19.325-19.283
		c0-10.651-8.652-19.276-19.325-19.276C63.479,37.957,54.828,46.582,54.828,57.232z"/>
	<rect x="99.361" y="20.158" fill="#CC4E4E" width="15.984" height="11.67"/>
	<rect x="115.346" y="20.158" fill="#5B4203" width="15.979" height="11.67"/>
</g>
</svg>
