<?xml version="1.0" encoding="utf-8"?>
<!-- Generator: Adobe Illustrator 16.0.0, SVG Export Plug-In . SVG Version: 6.00 Build 0)  -->
<!DOCTYPE svg PUBLIC "-//W3C//DTD SVG 1.1//EN" "http://www.w3.org/Graphics/SVG/1.1/DTD/svg11.dtd">
<svg version="1.1" id="Layer_1" xmlns="http://www.w3.org/2000/svg" xmlns:xlink="http://www.w3.org/1999/xlink" x="0px" y="0px"
	 width="175px" height="45px" viewBox="0 0 175 45" enable-background="new 0 0 175 45" xml:space="preserve">
<g enable-background="new    ">
	<path fill="#CC4E4E" d="M4.191,31.369c-1.429-2.667-2.127-5.508-2.096-8.524c0.063-2.824,0.714-5.443,1.953-7.856
		c1.206-2.54,2.793-4.477,4.762-5.81c2.222-1.429,4.65-1.984,7.286-1.667c2.857,0.318,5.762,1.747,8.714,4.286l-2.286,2.762
		l-2.429,2.857c-3.047-1.778-5.445-1.889-7.19-0.334c-1.587,1.303-2.333,3.334-2.238,6.096c0.063,2.762,0.92,4.794,2.571,6.095
		c1.81,1.493,4.126,1.303,6.953-0.571l4.523,5.096c-2.381,2.825-4.984,4.476-7.81,4.952C14.46,39.162,12,38.639,9.524,37.179
		C7.334,35.877,5.556,33.94,4.191,31.369z"/>
	<path fill="#CC4E4E" d="M27.238,13.179c2.698-3.683,6.254-5.524,10.667-5.524c3.682,0,6.793,1.524,9.333,4.571
		c1.365,1.683,2.317,3.413,2.857,5.191c0.507,1.81,0.714,3.778,0.619,5.904c-0.127,3.619-1.318,6.952-3.572,10
		c-2.73,3.715-6.302,5.571-10.714,5.571c-3.746,0-6.874-1.539-9.381-4.619C26,32.94,25.143,31.29,24.477,29.321
		c-0.604-1.936-0.857-3.936-0.762-6C23.905,19.544,25.079,16.163,27.238,13.179z M41.191,18.464
		c-0.889-1.809-2.048-2.714-3.476-2.714c-1.714,0-3.143,1.159-4.286,3.477c-0.762,1.714-1.175,3.492-1.238,5.333
		c-0.064,0.921,0.016,1.778,0.238,2.571c0.349,1.143,0.873,1.984,1.572,2.523c0.888,0.699,1.936,1.048,3.143,1.048
		c1.81,0,3.174-0.697,4.095-2.095c0.667-1.175,1.016-2.65,1.048-4.429C42.317,22.211,41.953,20.306,41.191,18.464z"/>
	<path fill="#CC4E4E" d="M51.857,8.512l9.571-1.428c0.19,0.857,0.46,2.095,0.81,3.714c0.92,3.683,1.905,6.937,2.953,9.762
		c0.571,1.619,1.158,2.904,1.762,3.857v-16l9.619-1.333C75.27,18.131,75,27.654,75.762,35.654l-8.714,1.905
		c-0.032-0.063-0.381-0.571-1.047-1.523l-4.429-6.096c-0.826-0.952-1.302-1.603-1.429-1.952c0,3.333,0.126,6.523,0.381,9.571
		l-8.619,1.81L51.857,8.512z"/>
	<path fill="#CC4E4E" d="M102.143,15.369c-4.031,0.222-6.904,0.397-8.619,0.523c-0.35,3.334,0.08,10.588,1.286,21.762l-10.095,1.857
		L84.667,16.56c-0.572,0.032-1.762,0.175-3.572,0.429c-1.683,0.159-3.032,0.285-4.047,0.381l0.571-7.953l22.953-1.905
		L102.143,15.369z"/>
	<path fill="#CC4E4E" d="M99.572,37.179c3.27-9.46,5.746-18.873,7.428-28.238l12.382-1.619c1.492,8.476,4.111,18.223,7.857,29.238
		l-9.381,1.952l-1.334-5.19l-6.143,0.571l-1.048,5.238L99.572,37.179z M115.335,27.798l-2.334-10.953l-1.905,11L115.335,27.798z"/>
	<path fill="#CC4E4E" d="M128.049,31.369c-1.429-2.667-2.127-5.508-2.096-8.524c0.063-2.824,0.715-5.443,1.952-7.856
		c1.207-2.54,2.794-4.477,4.763-5.81c2.222-1.429,4.65-1.984,7.285-1.667c2.857,0.318,5.762,1.747,8.715,4.286l-2.286,2.762
		l-2.429,2.857c-3.048-1.778-5.444-1.889-7.19-0.334c-1.588,1.303-2.333,3.334-2.238,6.096c0.063,2.762,0.921,4.794,2.572,6.095
		c1.809,1.493,4.126,1.303,6.952-0.571l4.523,5.096c-2.381,2.825-4.984,4.476-7.81,4.952c-2.444,0.412-4.904-0.111-7.381-1.571
		C131.191,35.877,129.413,33.94,128.049,31.369z"/>
	<path fill="#CC4E4E" d="M172.905,15.369c-4.032,0.222-6.905,0.397-8.619,0.523c-0.35,3.334,0.079,10.588,1.286,21.762
		l-10.096,1.857l-0.048-22.952c-0.571,0.032-1.762,0.175-3.571,0.429c-1.683,0.159-3.032,0.285-4.048,0.381l0.572-7.953
		l22.952-1.905L172.905,15.369z"/>
</g>
</svg>
