<?xml version="1.0" encoding="utf-8"?>
<!-- Generator: Adobe Illustrator 16.0.0, SVG Export Plug-In . SVG Version: 6.00 Build 0)  -->
<!DOCTYPE svg PUBLIC "-//W3C//DTD SVG 1.1//EN" "http://www.w3.org/Graphics/SVG/1.1/DTD/svg11.dtd">
<svg version="1.1" id="camera" xmlns="http://www.w3.org/2000/svg" xmlns:xlink="http://www.w3.org/1999/xlink" x="0px" y="0px"
	 width="142px" height="100px" viewBox="0 0 142 100" enable-background="new 0 0 142 100" xml:space="preserve">
<g>
	<rect x="59.724" y="91.728" fill="#3E6845" width="21.926" height="3.791"/>
	<path fill="#FFFFFF" stroke="#F9CC10" stroke-width="3" stroke-miterlimit="10" d="M116.357,1.39H26.968
		c-2.644,0-4.787,2.476-4.787,5.539v61.393c0,3.059,2.143,5.543,4.787,5.543h37.399h14.589h37.4c2.646,0,4.795-2.484,4.795-5.543
		V6.929C121.152,3.866,119.004,1.39,116.357,1.39z"/>
	<path fill="#F9CC10" d="M121.129,75.76c0,0-1.467-1.896-4.508-1.896h-8.418v1.04H33.906v-1.04h-8.355
		c-3.042,0-4.508,1.896-4.508,1.896L8.976,90.781c0,0.038,0.01,0.083,0.01,0.127c0.246,1.624,5.017,1.672,6.395,1.656
		c0.007-0.004,0.023-0.012,0.023-0.012h46.177c0.502-0.442,0.948-0.324,2.023-0.324h7.269c0.16,0,0.256,0,0.256,0H78.4
		c1.068,0,1.514-0.118,2.023,0.324H126.6c0,0,0.008,0.008,0.023,0.012c1.371,0.016,6.148-0.032,6.387-1.656
		c0.008-0.044,0.008-0.089,0.016-0.127L121.129,75.76z"/>
	<path fill="#4E8259" d="M133.025,90.781c0,0.038-0.008,0.087-0.016,0.127c-0.238,1.624-5.016,1.672-6.387,1.656
		c-0.016-0.004-0.023-0.012-0.023-0.012h-0.342H80.424c0,2.667-2.277,2.312-2.277,2.312h-7.018h-0.256h-7.015
		c0,0-2.277,0.354-2.277-2.312H15.747h-0.343c0,0-0.016,0.008-0.023,0.012c-1.378,0.016-6.148-0.032-6.395-1.656
		c-0.01-0.04-0.01-0.089-0.01-0.127c0,0-0.852,4.348,1.61,6.22c2.445,1.863,16.318,1.596,21.049,1.596
		c4.5,0,36.046,0.012,39.238,0.012l0,0c0,0,0.041,0,0.129,0c0.08,0,0.127,0,0.127,0l0,0c3.188,0,34.734-0.012,39.23-0.012
		c4.74,0,18.605,0.268,21.059-1.596C133.871,95.129,133.025,90.781,133.025,90.781z"/>
	<path fill="#A84242" d="M122.012,83.68c0.453,0.879-0.119,1.646-1.232,1.646H21.243c-1.115,0-1.435-0.748-1.1-1.549l4.867-6.403
		c1.05-1.279,1.201-1.7,2.325-1.7h87.016c1.123,0,1.949,0.418,3.018,1.7L122.012,83.68z"/>
	<g>
		<path fill="#CC4E4E" d="M27.008,76.374c-0.064,0.017-0.118,0.035-0.151,0.055c-0.048,0.024-0.08,0.048-0.095,0.067l-0.24,0.331
			c-0.016,0.023-0.016,0.048,0,0.071c0.008,0.016,0.04,0.032,0.072,0.057c0.039,0.012,0.087,0.022,0.145,0.03
			c0.062,0.008,0.126,0.018,0.197,0.018h4.828c0.071,0,0.15-0.01,0.223-0.018c0.064-0.008,0.128-0.019,0.191-0.03
			c0.055-0.024,0.111-0.041,0.143-0.057c0.04-0.023,0.07-0.048,0.088-0.071l0.208-0.331c0.017-0.02,0.007-0.043,0-0.067
			c-0.017-0.02-0.047-0.038-0.08-0.055c-0.04-0.017-0.088-0.025-0.146-0.036c-0.062-0.013-0.125-0.013-0.197-0.013h-4.779
			c-0.071,0-0.143,0-0.215,0.013C27.127,76.349,27.063,76.357,27.008,76.374z"/>
		<path fill="#CC4E4E" d="M33.347,76.374c-0.056,0.017-0.103,0.035-0.152,0.055c-0.031,0.024-0.064,0.048-0.078,0.067l-0.2,0.331
			c-0.016,0.023-0.016,0.048,0,0.071c0.016,0.016,0.039,0.032,0.079,0.057c0.042,0.012,0.088,0.022,0.144,0.03
			c0.064,0.008,0.128,0.018,0.207,0.018h4.826c0.072,0,0.144-0.01,0.215-0.018c0.063-0.008,0.136-0.019,0.191-0.03
			c0.056-0.024,0.104-0.041,0.144-0.057c0.032-0.023,0.063-0.048,0.079-0.071l0.168-0.331c0.015-0.02,0.008-0.043-0.008-0.067
			c-0.016-0.02-0.048-0.038-0.088-0.055c-0.04-0.017-0.088-0.025-0.151-0.036c-0.056-0.013-0.121-0.013-0.199-0.013h-4.771
			c-0.071,0-0.143,0-0.215,0.013C33.476,76.349,33.403,76.357,33.347,76.374z"/>
		<path fill="#CC4E4E" d="M39.694,76.374c-0.055,0.017-0.104,0.035-0.143,0.055c-0.033,0.024-0.063,0.048-0.071,0.067l-0.177,0.331
			c-0.008,0.023-0.008,0.048,0.017,0.071c0.008,0.016,0.04,0.032,0.081,0.057c0.039,0.012,0.094,0.022,0.15,0.03
			c0.056,0.008,0.127,0.018,0.208,0.018h4.818c0.079,0,0.151-0.01,0.215-0.018c0.072-0.008,0.136-0.019,0.19-0.03
			c0.047-0.024,0.095-0.041,0.137-0.057c0.039-0.023,0.054-0.048,0.071-0.071l0.135-0.331c0.008-0.02,0.008-0.043-0.016-0.067
			c-0.016-0.02-0.048-0.038-0.088-0.055c-0.04-0.017-0.095-0.025-0.151-0.036c-0.065-0.013-0.135-0.013-0.207-0.013h-4.771
			c-0.07,0-0.143,0-0.207,0.013C39.815,76.349,39.752,76.357,39.694,76.374z"/>
		<path fill="#CC4E4E" d="M46.043,76.374c-0.057,0.017-0.104,0.035-0.144,0.055c-0.032,0.024-0.057,0.048-0.064,0.067l-0.135,0.331
			c-0.008,0.023-0.008,0.048,0.007,0.071c0.023,0.016,0.056,0.032,0.095,0.057c0.04,0.012,0.096,0.022,0.16,0.03
			c0.055,0.008,0.125,0.018,0.2,0.018h4.824c0.081,0,0.145-0.01,0.216-0.018c0.072-0.008,0.128-0.019,0.183-0.03
			c0.048-0.024,0.095-0.041,0.127-0.057c0.032-0.023,0.064-0.048,0.064-0.071l0.104-0.331c0.007-0.02,0-0.043-0.025-0.067
			c-0.016-0.02-0.047-0.038-0.087-0.055c-0.048-0.017-0.095-0.025-0.159-0.036c-0.062-0.013-0.127-0.013-0.199-0.013h-4.778
			c-0.072,0-0.145,0-0.215,0.013C46.153,76.349,46.089,76.357,46.043,76.374z"/>
		<path fill="#CC4E4E" d="M52.382,76.374c-0.055,0.017-0.095,0.035-0.126,0.055c-0.04,0.024-0.057,0.048-0.064,0.067l-0.104,0.331
			c-0.009,0.023,0.007,0.048,0.024,0.071c0.022,0.016,0.056,0.032,0.094,0.057c0.049,0.012,0.104,0.022,0.159,0.03
			c0.064,0.008,0.135,0.018,0.208,0.018H57.4c0.071,0,0.143-0.01,0.206-0.018c0.073-0.008,0.128-0.019,0.183-0.03
			c0.048-0.024,0.096-0.041,0.12-0.057c0.04-0.023,0.057-0.048,0.064-0.071l0.073-0.331c0-0.02-0.009-0.043-0.033-0.067
			c-0.024-0.02-0.056-0.038-0.104-0.055c-0.047-0.017-0.104-0.025-0.158-0.036c-0.064-0.013-0.128-0.013-0.208-0.013h-4.77
			c-0.073,0-0.145,0-0.209,0.013C52.5,76.349,52.429,76.357,52.382,76.374z"/>
		<path fill="#CC4E4E" d="M58.729,76.374c-0.055,0.017-0.095,0.035-0.126,0.055c-0.033,0.024-0.048,0.048-0.057,0.067l-0.063,0.331
			c-0.007,0.023,0.008,0.048,0.024,0.071c0.024,0.016,0.056,0.032,0.104,0.057c0.046,0.012,0.104,0.022,0.167,0.03
			c0.055,0.008,0.128,0.018,0.208,0.018h4.816c0.079,0,0.15-0.01,0.214-0.018c0.064-0.008,0.121-0.019,0.177-0.03
			c0.048-0.024,0.095-0.041,0.119-0.057c0.032-0.023,0.048-0.048,0.048-0.071l0.04-0.331c0-0.02-0.007-0.043-0.04-0.067
			c-0.024-0.02-0.057-0.038-0.103-0.055c-0.049-0.017-0.104-0.025-0.168-0.036c-0.063-0.013-0.137-0.013-0.199-0.013h-4.779
			c-0.08,0-0.142,0-0.206,0.013C58.832,76.349,58.777,76.357,58.729,76.374z"/>
		<path fill="#CC4E4E" d="M65.069,76.374c-0.048,0.017-0.087,0.035-0.12,0.055c-0.023,0.024-0.04,0.048-0.047,0.067l-0.033,0.331
			c0,0.023,0.009,0.048,0.04,0.071c0.023,0.016,0.058,0.032,0.104,0.057c0.048,0.012,0.104,0.022,0.168,0.03
			c0.063,0.008,0.135,0.018,0.207,0.018h4.825c0.08,0,0.145-0.01,0.207-0.018c0.072-0.008,0.129-0.019,0.176-0.03
			c0.047-0.024,0.09-0.041,0.111-0.057c0.023-0.023,0.049-0.048,0.049-0.071v-0.331c0-0.02-0.018-0.043-0.041-0.067
			c-0.029-0.02-0.062-0.038-0.119-0.055c-0.039-0.017-0.104-0.025-0.168-0.036c-0.062-0.013-0.125-0.013-0.207-0.013h-4.769
			c-0.072,0-0.144,0-0.207,0.013C65.181,76.349,65.124,76.357,65.069,76.374z"/>
		<path fill="#CC4E4E" d="M71.416,76.374c-0.049,0.017-0.088,0.035-0.119,0.055c-0.023,0.024-0.041,0.048-0.041,0.067l0.01,0.331
			c0,0.023,0.016,0.048,0.039,0.071c0.023,0.016,0.062,0.032,0.111,0.057c0.055,0.012,0.111,0.022,0.174,0.03
			c0.064,0.008,0.137,0.018,0.209,0.018h4.826c0.072,0,0.143-0.01,0.207-0.018c0.057-0.008,0.119-0.019,0.158-0.03
			c0.057-0.024,0.088-0.041,0.119-0.057c0.025-0.023,0.033-0.048,0.033-0.071l-0.033-0.331c0-0.02-0.021-0.043-0.047-0.067
			c-0.031-0.02-0.072-0.038-0.119-0.055c-0.055-0.017-0.111-0.025-0.176-0.036c-0.062-0.013-0.135-0.013-0.207-0.013h-4.771
			c-0.07,0-0.143,0-0.205,0.013C71.52,76.349,71.465,76.357,71.416,76.374z"/>
		<path fill="#CC4E4E" d="M77.756,76.374c-0.049,0.017-0.08,0.035-0.104,0.055c-0.023,0.024-0.039,0.048-0.033,0.067l0.033,0.331
			c0,0.023,0.023,0.048,0.047,0.071c0.031,0.016,0.072,0.032,0.121,0.057c0.055,0.012,0.111,0.022,0.174,0.03
			c0.064,0.008,0.143,0.018,0.207,0.018h4.826c0.08,0,0.152-0.01,0.207-0.018c0.064-0.008,0.129-0.019,0.168-0.03
			c0.041-0.024,0.08-0.041,0.104-0.057c0.025-0.023,0.031-0.048,0.025-0.071l-0.064-0.331c0-0.02-0.023-0.043-0.057-0.067
			c-0.031-0.02-0.072-0.038-0.119-0.055c-0.057-0.017-0.111-0.025-0.184-0.036c-0.055-0.013-0.135-0.013-0.207-0.013h-4.771
			c-0.07,0-0.143,0-0.207,0.013C77.859,76.349,77.803,76.357,77.756,76.374z"/>
		<path fill="#CC4E4E" d="M84.104,76.374c-0.049,0.017-0.08,0.035-0.104,0.055c-0.018,0.024-0.031,0.048-0.023,0.067l0.064,0.331
			c0.008,0.023,0.023,0.048,0.053,0.071c0.033,0.016,0.08,0.032,0.137,0.057c0.047,0.012,0.111,0.022,0.176,0.03
			s0.135,0.018,0.205,0.018h4.828c0.078,0,0.143-0.01,0.207-0.018c0.062-0.008,0.111-0.019,0.16-0.03
			c0.045-0.024,0.078-0.041,0.094-0.057c0.023-0.023,0.033-0.048,0.023-0.071l-0.094-0.331c-0.008-0.02-0.033-0.043-0.072-0.067
			c-0.025-0.02-0.072-0.038-0.127-0.055c-0.049-0.017-0.113-0.025-0.184-0.036c-0.064-0.013-0.137-0.013-0.207-0.013h-4.77
			c-0.072,0-0.145,0-0.209,0.013C84.207,76.349,84.152,76.357,84.104,76.374z"/>
		<path fill="#CC4E4E" d="M90.451,76.374c-0.047,0.017-0.082,0.035-0.104,0.055c-0.016,0.024-0.025,0.048-0.016,0.067l0.102,0.331
			c0.01,0.023,0.025,0.048,0.064,0.071c0.033,0.016,0.08,0.032,0.127,0.057c0.057,0.012,0.121,0.022,0.186,0.03
			c0.07,0.008,0.143,0.018,0.213,0.018h4.828c0.07,0,0.143-0.01,0.199-0.018c0.062-0.008,0.109-0.019,0.158-0.03
			c0.039-0.024,0.07-0.041,0.096-0.057c0.018-0.023,0.018-0.048,0.018-0.071l-0.137-0.331c-0.016-0.02-0.041-0.043-0.072-0.067
			c-0.033-0.02-0.08-0.038-0.135-0.055c-0.057-0.017-0.121-0.025-0.186-0.036c-0.07-0.013-0.143-0.013-0.213-0.013h-4.77
			c-0.082,0-0.145,0-0.207,0.013C90.547,76.349,90.49,76.357,90.451,76.374z"/>
		<path fill="#CC4E4E" d="M96.797,76.374c-0.047,0.017-0.08,0.035-0.096,0.055c-0.021,0.024-0.021,0.048-0.014,0.067l0.135,0.331
			c0.008,0.023,0.039,0.048,0.072,0.071c0.037,0.016,0.078,0.032,0.135,0.057c0.055,0.012,0.127,0.022,0.189,0.03
			c0.064,0.008,0.145,0.018,0.217,0.018h4.826c0.072,0,0.135-0.01,0.199-0.018c0.055-0.008,0.111-0.019,0.152-0.03
			c0.037-0.024,0.072-0.041,0.086-0.057c0.016-0.023,0.016-0.048,0.01-0.071l-0.17-0.331c-0.014-0.02-0.039-0.043-0.078-0.067
			c-0.041-0.02-0.088-0.038-0.143-0.055c-0.057-0.017-0.121-0.025-0.184-0.036c-0.072-0.013-0.145-0.013-0.215-0.013h-4.781
			c-0.07,0-0.135,0-0.189,0.013C96.885,76.349,96.83,76.357,96.797,76.374z"/>
		<path fill="#CC4E4E" d="M103.137,76.374c-0.039,0.017-0.07,0.035-0.086,0.055c-0.018,0.024-0.018,0.048,0,0.067l0.166,0.331
			c0.008,0.023,0.039,0.048,0.072,0.071c0.039,0.016,0.088,0.032,0.143,0.057c0.064,0.012,0.129,0.022,0.193,0.03
			c0.07,0.008,0.141,0.018,0.221,0.018h4.818c0.08,0,0.143-0.01,0.207-0.018c0.057-0.008,0.104-0.019,0.145-0.03
			c0.039-0.024,0.062-0.041,0.08-0.057c0.016-0.023,0.016-0.048,0.008-0.071l-0.207-0.331c-0.018-0.02-0.041-0.043-0.08-0.067
			c-0.039-0.02-0.098-0.038-0.152-0.055s-0.119-0.025-0.189-0.036c-0.072-0.013-0.145-0.013-0.215-0.013h-4.771
			c-0.08,0-0.145,0-0.209,0.013C103.225,76.349,103.178,76.357,103.137,76.374z"/>
		<path fill="#CC4E4E" d="M109.477,76.374c-0.039,0.017-0.062,0.035-0.078,0.055c-0.01,0.024-0.016,0.048,0,0.067l0.205,0.331
			c0.016,0.023,0.039,0.048,0.088,0.071c0.041,0.016,0.088,0.032,0.152,0.057c0.057,0.012,0.119,0.022,0.191,0.03
			c0.07,0.008,0.143,0.018,0.215,0.018h4.826c0.078,0,0.143-0.01,0.199-0.018c0.055-0.008,0.113-0.019,0.143-0.03
			c0.041-0.024,0.064-0.041,0.072-0.057c0.016-0.023,0.016-0.048,0-0.071l-0.24-0.331c-0.016-0.02-0.047-0.043-0.086-0.067
			c-0.049-0.02-0.098-0.038-0.152-0.055c-0.064-0.017-0.127-0.025-0.199-0.036c-0.062-0.013-0.143-0.013-0.215-0.013h-4.771
			c-0.078,0-0.141,0-0.197,0.013C109.572,76.349,109.516,76.357,109.477,76.374z"/>
		<path fill="#CC4E4E" d="M26.92,84.52c0.072-0.012,0.144-0.031,0.191-0.056c0.048-0.018,0.08-0.038,0.103-0.067l0.822-1.31
			c0.016-0.028,0.007-0.048-0.016-0.071c-0.024-0.017-0.063-0.031-0.12-0.053c-0.056-0.019-0.119-0.027-0.199-0.036
			c-0.081-0.012-0.174-0.012-0.271-0.012h-4.547c-0.095,0-0.192,0-0.286,0.012c-0.087,0.009-0.176,0.018-0.254,0.036
			c-0.073,0.021-0.146,0.036-0.192,0.053c-0.047,0.023-0.087,0.043-0.103,0.071l-0.94,1.31c-0.015,0.029-0.015,0.05,0.008,0.067
			c0.024,0.024,0.064,0.044,0.12,0.056c0.048,0.017,0.12,0.033,0.208,0.039c0.079,0.011,0.167,0.019,0.269,0.019h4.661
			c0.095,0,0.198-0.008,0.285-0.019C26.754,84.553,26.841,84.536,26.92,84.52z"/>
		<path fill="#CC4E4E" d="M33.858,84.52c0.071-0.012,0.135-0.031,0.184-0.056c0.046-0.018,0.078-0.038,0.093-0.067l0.694-1.31
			c0.008-0.028,0.008-0.048-0.024-0.071c-0.024-0.017-0.071-0.031-0.119-0.053c-0.064-0.019-0.129-0.027-0.216-0.036
			c-0.081-0.012-0.167-0.012-0.271-0.012h-4.539c-0.096,0-0.191,0-0.287,0.012c-0.088,0.009-0.176,0.018-0.247,0.036
			c-0.08,0.021-0.145,0.036-0.191,0.053c-0.048,0.023-0.081,0.043-0.096,0.071l-0.813,1.31c-0.016,0.029-0.007,0.05,0.017,0.067
			c0.024,0.024,0.063,0.044,0.127,0.056c0.056,0.017,0.129,0.033,0.208,0.039c0.088,0.011,0.175,0.019,0.279,0.019h4.649
			c0.096,0,0.2-0.008,0.294-0.019C33.689,84.553,33.777,84.536,33.858,84.52z"/>
		<path fill="#CC4E4E" d="M40.659,84.52c0.072-0.012,0.126-0.031,0.175-0.056c0.048-0.018,0.08-0.038,0.089-0.067l0.564-1.31
			c0.008-0.028,0-0.048-0.024-0.071c-0.023-0.017-0.07-0.031-0.128-0.053c-0.064-0.019-0.127-0.027-0.215-0.036
			c-0.087-0.012-0.175-0.012-0.271-0.012h-4.547c-0.095,0-0.191,0-0.287,0.012c-0.087,0.009-0.168,0.018-0.24,0.036
			c-0.08,0.021-0.134,0.036-0.182,0.053c-0.048,0.023-0.08,0.043-0.095,0.071l-0.678,1.31c-0.016,0.029-0.007,0.05,0.016,0.067
			c0.032,0.024,0.071,0.044,0.135,0.056c0.057,0.017,0.128,0.033,0.208,0.039c0.088,0.011,0.184,0.019,0.286,0.019h4.645
			c0.103,0,0.208-0.008,0.295-0.019C40.499,84.553,40.578,84.536,40.659,84.52z"/>
		<path fill="#CC4E4E" d="M49.625,84.52c0.064-0.012,0.128-0.031,0.168-0.056c0.048-0.018,0.071-0.038,0.08-0.067l0.398-1.31
			c0.007-0.028-0.007-0.048-0.032-0.071c-0.031-0.017-0.08-0.031-0.144-0.053c-0.055-0.019-0.135-0.027-0.215-0.036
			c-0.08-0.012-0.175-0.012-0.279-0.012h-6.25c-0.097,0-0.19,0-0.278,0.012c-0.097,0.009-0.176,0.018-0.248,0.036
			c-0.071,0.021-0.128,0.036-0.174,0.053c-0.048,0.023-0.081,0.043-0.088,0.071l-0.542,1.31c-0.016,0.029,0,0.05,0.032,0.067
			c0.024,0.024,0.071,0.044,0.128,0.056c0.063,0.017,0.135,0.033,0.222,0.039c0.079,0.011,0.176,0.019,0.277,0.019h6.405
			c0.103,0,0.199-0.008,0.293-0.019C49.467,84.553,49.547,84.536,49.625,84.52z"/>
		<path fill="#CC4E4E" d="M84.334,84.52c0.064-0.012,0.119-0.031,0.143-0.056c0.041-0.018,0.059-0.038,0.049-0.067l-0.256-1.31
			c0-0.028-0.023-0.048-0.062-0.071c-0.049-0.017-0.104-0.031-0.166-0.053c-0.064-0.019-0.145-0.027-0.24-0.036
			c-0.08-0.012-0.176-0.012-0.279-0.012H51.833c-0.097,0-0.192,0-0.279,0.012c-0.087,0.009-0.167,0.018-0.239,0.036
			c-0.073,0.021-0.127,0.036-0.176,0.053c-0.04,0.023-0.063,0.043-0.071,0.071l-0.382,1.31c-0.008,0.029,0,0.05,0.031,0.067
			c0.032,0.024,0.088,0.044,0.144,0.056c0.063,0.017,0.144,0.033,0.223,0.039c0.087,0.011,0.183,0.019,0.286,0.019h32.464
			c0.094,0,0.189-0.008,0.277-0.019C84.199,84.553,84.27,84.536,84.334,84.52z"/>
		<path fill="#CC4E4E" d="M99.953,84.52c0.053-0.012,0.102-0.031,0.133-0.056c0.023-0.018,0.043-0.038,0.023-0.067l-0.539-1.31
			c-0.018-0.028-0.041-0.048-0.088-0.071c-0.049-0.017-0.104-0.031-0.176-0.053c-0.072-0.019-0.15-0.027-0.24-0.036
			c-0.094-0.012-0.189-0.012-0.285-0.012h-4.549c-0.094,0-0.191,0-0.27,0.012c-0.08,0.009-0.16,0.018-0.217,0.036
			c-0.062,0.021-0.102,0.036-0.135,0.053c-0.031,0.023-0.039,0.043-0.031,0.071l0.43,1.31c0.01,0.029,0.031,0.05,0.08,0.067
			c0.049,0.024,0.104,0.044,0.176,0.056c0.072,0.017,0.15,0.033,0.246,0.039c0.088,0.011,0.191,0.019,0.295,0.019h4.643
			c0.104,0,0.199-0.008,0.287-0.019C99.816,84.553,99.895,84.536,99.953,84.52z"/>
		<path fill="#CC4E4E" d="M106.723,83.86c-0.01-0.032-0.041-0.058-0.088-0.073c-0.049-0.023-0.113-0.039-0.184-0.055
			c-0.08-0.018-0.16-0.032-0.256-0.032c-0.086-0.017-0.191-0.021-0.285-0.021h-4.588c-0.105,0-0.199,0.004-0.279,0.021
			c-0.08,0-0.16,0.015-0.215,0.032c-0.064,0.016-0.104,0.031-0.137,0.055c-0.031,0.016-0.031,0.041-0.031,0.073l0.232,0.524
			c0.016,0.024,0.039,0.048,0.088,0.063c0.047,0.023,0.102,0.044,0.182,0.06c0.072,0.012,0.16,0.028,0.248,0.036
			c0.096,0.009,0.189,0.015,0.295,0.015h4.643c0.104,0,0.199-0.006,0.279-0.015c0.086-0.008,0.158-0.024,0.223-0.036
			c0.055-0.016,0.104-0.036,0.127-0.06c0.023-0.016,0.031-0.039,0.023-0.063L106.723,83.86z"/>
		<path fill="#CC4E4E" d="M114.805,83.7c-0.08,0-0.15,0.015-0.207,0.032c-0.055,0.016-0.096,0.031-0.119,0.055
			c-0.023,0.016-0.033,0.041-0.016,0.073l0.334,0.524c0.008,0.024,0.047,0.048,0.096,0.063c0.055,0.023,0.119,0.044,0.189,0.06
			c0.082,0.012,0.162,0.028,0.256,0.036c0.096,0.009,0.199,0.015,0.295,0.015h4.66c0.094,0,0.184-0.006,0.27-0.015
			c0.08-0.008,0.152-0.024,0.207-0.036c0.055-0.016,0.096-0.036,0.111-0.06c0.025-0.016,0.031-0.039,0.018-0.063l-0.385-0.524
			c-0.014-0.032-0.055-0.058-0.102-0.073c-0.047-0.023-0.119-0.039-0.199-0.055c-0.072-0.018-0.158-0.032-0.256-0.032
			c-0.086-0.017-0.182-0.021-0.285-0.021h-4.596C114.98,83.68,114.885,83.684,114.805,83.7z"/>
		<path fill="#CC4E4E" d="M113.682,83.947c-0.016-0.021-0.049-0.04-0.102-0.067c-0.051-0.02-0.113-0.036-0.193-0.052
			c-0.07-0.016-0.158-0.025-0.254-0.041c-0.088-0.009-0.184-0.011-0.287-0.011h-4.596c-0.104,0-0.199,0.002-0.27,0.011
			c-0.09,0.016-0.16,0.025-0.225,0.041c-0.047,0.016-0.088,0.032-0.117,0.052c-0.025,0.027-0.041,0.047-0.025,0.067l0.23,0.438
			c0.01,0.024,0.047,0.048,0.096,0.063c0.049,0.023,0.111,0.044,0.184,0.06c0.072,0.012,0.16,0.028,0.254,0.036
			c0.088,0.009,0.191,0.015,0.297,0.015h4.65c0.096,0,0.191-0.006,0.271-0.015c0.086-0.008,0.148-0.024,0.205-0.036
			c0.064-0.016,0.104-0.036,0.129-0.06c0.021-0.016,0.031-0.039,0.016-0.063L113.682,83.947z"/>
		<path fill="#CC4E4E" d="M107.916,83.677c0.088,0.012,0.191,0.015,0.287,0.015h4.594c0.104,0,0.193-0.003,0.271-0.015
			c0.088-0.005,0.152-0.017,0.207-0.036c0.057-0.016,0.104-0.035,0.119-0.052c0.025-0.022,0.033-0.048,0.025-0.071l-0.264-0.414
			c-0.016-0.029-0.047-0.049-0.096-0.071c-0.047-0.017-0.111-0.042-0.191-0.048c-0.072-0.018-0.158-0.032-0.246-0.04
			c-0.096-0.009-0.191-0.018-0.287-0.018h-4.547c-0.096,0-0.191,0.009-0.264,0.018c-0.088,0.008-0.158,0.022-0.217,0.04
			c-0.053,0.006-0.092,0.031-0.125,0.048c-0.025,0.022-0.033,0.042-0.018,0.071l0.225,0.414c0.008,0.023,0.041,0.049,0.088,0.071
			c0.047,0.017,0.111,0.036,0.189,0.052C107.74,83.66,107.82,83.672,107.916,83.677z"/>
		<path fill="#CC4E4E" d="M92.982,84.52c0.055-0.012,0.104-0.031,0.137-0.056c0.039-0.018,0.047-0.038,0.039-0.067l-0.414-1.31
			c-0.016-0.028-0.041-0.048-0.08-0.071c-0.047-0.017-0.104-0.031-0.176-0.053c-0.07-0.019-0.152-0.027-0.238-0.036
			c-0.088-0.012-0.184-0.012-0.287-0.012h-6.242c-0.104,0-0.199,0-0.279,0.012c-0.09,0.009-0.16,0.018-0.225,0.036
			c-0.061,0.021-0.109,0.036-0.143,0.053c-0.031,0.023-0.047,0.043-0.039,0.071l0.264,1.31c0.008,0.029,0.031,0.05,0.08,0.067
			c0.037,0.024,0.096,0.044,0.166,0.056c0.072,0.017,0.15,0.033,0.238,0.039c0.088,0.011,0.189,0.019,0.287,0.019h6.402
			c0.105,0,0.199-0.008,0.287-0.019C92.848,84.553,92.918,84.536,92.982,84.52z"/>
		<path fill="#CC4E4E" d="M37.377,81.438c-0.056-0.017-0.127-0.032-0.208-0.032c-0.079-0.008-0.166-0.015-0.261-0.015h-12.95
			c-0.096,0-0.183,0.007-0.279,0.015c-0.087,0-0.174,0.016-0.246,0.032c-0.08,0.017-0.145,0.031-0.191,0.048
			c-0.048,0.023-0.081,0.039-0.095,0.063l-0.75,1.043c-0.008,0.021-0.008,0.04,0.008,0.064c0.025,0.023,0.063,0.04,0.12,0.051
			c0.047,0.02,0.128,0.029,0.199,0.036c0.088,0.009,0.175,0.012,0.271,0.012h13.213c0.095,0,0.19-0.003,0.287-0.012
			c0.079-0.007,0.167-0.017,0.238-0.036c0.08-0.011,0.135-0.027,0.184-0.051c0.047-0.024,0.071-0.043,0.088-0.064l0.517-1.043
			c0.016-0.024,0.006-0.04-0.024-0.063C37.473,81.47,37.433,81.455,37.377,81.438z"/>
		<path fill="#CC4E4E" d="M43.932,81.438c-0.056-0.017-0.136-0.032-0.214-0.032c-0.081-0.008-0.167-0.015-0.271-0.015H39.01
			c-0.095,0-0.191,0.007-0.278,0.015c-0.088,0-0.167,0.016-0.239,0.032c-0.071,0.017-0.128,0.031-0.176,0.048
			c-0.046,0.023-0.071,0.039-0.08,0.063l-0.51,1.043c-0.015,0.021-0.008,0.04,0.016,0.064c0.032,0.023,0.071,0.04,0.128,0.051
			c0.064,0.02,0.135,0.029,0.215,0.036c0.08,0.009,0.176,0.012,0.271,0.012h4.523c0.104,0,0.2-0.003,0.287-0.012
			c0.095-0.007,0.176-0.017,0.248-0.036c0.071-0.011,0.127-0.027,0.174-0.051c0.042-0.024,0.065-0.043,0.072-0.064l0.429-1.043
			c0.009-0.024-0.007-0.04-0.029-0.063C44.036,81.47,43.988,81.455,43.932,81.438z"/>
		<path fill="#CC4E4E" d="M50.559,81.438c-0.057-0.017-0.135-0.032-0.207-0.032c-0.088-0.008-0.185-0.015-0.28-0.015h-4.437
			c-0.094,0-0.19,0.007-0.278,0.015c-0.088,0-0.167,0.016-0.231,0.032c-0.071,0.017-0.136,0.031-0.175,0.048
			c-0.04,0.023-0.074,0.039-0.081,0.063l-0.406,1.043c-0.007,0.021,0,0.04,0.03,0.064c0.025,0.023,0.074,0.04,0.138,0.051
			c0.054,0.02,0.126,0.029,0.207,0.036c0.087,0.009,0.174,0.012,0.279,0.012h4.522c0.104,0,0.2-0.003,0.288-0.012
			c0.087-0.007,0.166-0.017,0.237-0.036c0.073-0.011,0.128-0.027,0.177-0.051c0.031-0.024,0.063-0.043,0.071-0.064l0.31-1.043
			c0.008-0.024,0-0.04-0.03-0.063C50.662,81.47,50.615,81.455,50.559,81.438z"/>
		<path fill="#CC4E4E" d="M57.184,81.438c-0.055-0.017-0.126-0.032-0.214-0.032c-0.081-0.008-0.168-0.015-0.272-0.015h-4.436
			c-0.095,0-0.184,0.007-0.28,0.015c-0.086,0-0.158,0.016-0.23,0.032c-0.071,0.017-0.119,0.031-0.167,0.048
			c-0.04,0.023-0.064,0.039-0.072,0.063l-0.302,1.043c-0.008,0.021,0.007,0.04,0.031,0.064c0.033,0.023,0.081,0.04,0.144,0.051
			c0.056,0.02,0.135,0.029,0.216,0.036c0.087,0.009,0.174,0.012,0.277,0.012h4.532c0.096,0,0.191-0.003,0.278-0.012
			c0.087-0.007,0.167-0.017,0.232-0.036c0.071-0.011,0.118-0.027,0.167-0.051c0.041-0.024,0.063-0.043,0.071-0.064l0.207-1.043
			c0.008-0.024-0.016-0.04-0.039-0.063C57.295,81.47,57.247,81.455,57.184,81.438z"/>
		<path fill="#CC4E4E" d="M63.82,81.438c-0.064-0.017-0.136-0.032-0.225-0.032c-0.08-0.008-0.175-0.015-0.27-0.015H58.89
			c-0.097,0-0.193,0.007-0.28,0.015c-0.087,0-0.159,0.016-0.222,0.032c-0.072,0.017-0.129,0.031-0.168,0.048
			c-0.033,0.023-0.064,0.039-0.064,0.063l-0.199,1.043c-0.008,0.021,0.009,0.04,0.041,0.064c0.03,0.023,0.087,0.04,0.142,0.051
			c0.064,0.02,0.136,0.029,0.223,0.036c0.089,0.009,0.184,0.012,0.271,0.012h4.532c0.104,0,0.198-0.003,0.278-0.012
			c0.088-0.007,0.167-0.017,0.24-0.036c0.062-0.011,0.118-0.027,0.158-0.051c0.039-0.024,0.057-0.043,0.057-0.064l0.111-1.043
			c0-0.024-0.017-0.04-0.049-0.063C63.93,81.47,63.881,81.455,63.82,81.438z"/>
		<path fill="#CC4E4E" d="M70.443,81.438c-0.064-0.017-0.135-0.032-0.223-0.032c-0.078-0.008-0.174-0.015-0.27-0.015h-4.436
			c-0.096,0-0.191,0.007-0.28,0.015c-0.079,0-0.157,0.016-0.222,0.032s-0.118,0.031-0.159,0.048
			c-0.032,0.023-0.056,0.039-0.056,0.063l-0.097,1.043c0,0.021,0.017,0.04,0.049,0.064c0.032,0.023,0.08,0.04,0.151,0.051
			c0.064,0.02,0.135,0.029,0.222,0.036c0.089,0.009,0.176,0.012,0.271,0.012h4.539c0.098,0,0.186-0.003,0.273-0.012
			c0.086-0.007,0.166-0.017,0.23-0.036c0.062-0.011,0.119-0.027,0.15-0.051c0.033-0.024,0.064-0.043,0.064-0.064V81.55
			c0-0.024-0.025-0.04-0.057-0.063C70.564,81.47,70.508,81.455,70.443,81.438z"/>
		<path fill="#CC4E4E" d="M77.229,81.486c-0.037-0.017-0.086-0.031-0.158-0.048c-0.055-0.017-0.135-0.032-0.223-0.032
			c-0.088-0.008-0.176-0.015-0.271-0.015h-4.436c-0.104,0-0.189,0.007-0.279,0.015c-0.078,0-0.16,0.016-0.223,0.032
			c-0.055,0.017-0.111,0.031-0.15,0.048c-0.031,0.023-0.057,0.039-0.057,0.063l0.01,1.043c0,0.021,0.023,0.04,0.055,0.064
			c0.039,0.023,0.094,0.04,0.158,0.051c0.064,0.02,0.145,0.029,0.232,0.036c0.08,0.009,0.176,0.012,0.271,0.012h4.539
			c0.088,0,0.182-0.003,0.27-0.012c0.088-0.007,0.158-0.017,0.225-0.036c0.062-0.011,0.119-0.027,0.15-0.051
			c0.031-0.024,0.047-0.043,0.047-0.064l-0.096-1.043C77.285,81.525,77.27,81.51,77.229,81.486z"/>
		<path fill="#CC4E4E" d="M83.863,81.486c-0.029-0.017-0.088-0.031-0.158-0.048c-0.064-0.017-0.145-0.032-0.23-0.032
			c-0.08-0.008-0.176-0.015-0.271-0.015H78.76c-0.096,0-0.184,0.007-0.271,0.015c-0.078,0-0.15,0.016-0.223,0.032
			c-0.055,0.017-0.113,0.031-0.137,0.048c-0.039,0.023-0.055,0.039-0.055,0.063l0.111,1.043c0,0.021,0.025,0.04,0.064,0.064
			c0.039,0.023,0.096,0.04,0.16,0.051c0.061,0.02,0.141,0.029,0.229,0.036c0.09,0.009,0.184,0.012,0.279,0.012h4.531
			c0.098,0,0.191-0.003,0.279-0.012c0.08-0.007,0.16-0.017,0.215-0.036c0.062-0.011,0.111-0.027,0.15-0.051
			c0.025-0.024,0.041-0.043,0.041-0.064l-0.199-1.043C83.928,81.525,83.904,81.51,83.863,81.486z"/>
		<path fill="#CC4E4E" d="M90.498,81.486c-0.039-0.017-0.094-0.031-0.158-0.048c-0.072-0.017-0.152-0.032-0.24-0.032
			c-0.088-0.008-0.176-0.015-0.27-0.015h-4.443c-0.098,0-0.193,0.007-0.271,0.015c-0.08,0-0.152,0.016-0.207,0.032
			c-0.072,0.017-0.111,0.031-0.145,0.048c-0.031,0.023-0.047,0.039-0.047,0.063l0.215,1.043c0,0.021,0.031,0.04,0.072,0.064
			c0.039,0.023,0.094,0.04,0.166,0.051c0.064,0.02,0.145,0.029,0.223,0.036c0.096,0.009,0.191,0.012,0.287,0.012h4.533
			c0.096,0,0.191-0.003,0.277-0.012c0.078-0.007,0.15-0.017,0.215-0.036c0.057-0.011,0.105-0.027,0.135-0.051
			c0.033-0.024,0.041-0.043,0.041-0.064l-0.312-1.043C90.568,81.525,90.547,81.51,90.498,81.486z"/>
		<path fill="#CC4E4E" d="M97.133,81.486c-0.039-0.017-0.104-0.031-0.168-0.048c-0.07-0.017-0.15-0.032-0.238-0.032
			c-0.088-0.008-0.176-0.015-0.279-0.015h-4.436c-0.096,0-0.184,0.007-0.271,0.015c-0.08,0-0.15,0.016-0.207,0.032
			c-0.062,0.017-0.111,0.031-0.137,0.048c-0.029,0.023-0.039,0.039-0.039,0.063l0.32,1.043c0.008,0.021,0.031,0.04,0.07,0.064
			c0.049,0.023,0.104,0.04,0.176,0.051c0.064,0.02,0.143,0.029,0.232,0.036c0.094,0.009,0.189,0.012,0.285,0.012h4.531
			c0.096,0,0.191-0.003,0.271-0.012c0.088-0.007,0.152-0.017,0.215-0.036c0.064-0.011,0.104-0.027,0.137-0.051
			c0.021-0.024,0.039-0.043,0.029-0.064l-0.412-1.043C97.213,81.525,97.18,81.51,97.133,81.486z"/>
		<path fill="#CC4E4E" d="M104.006,82.744c0.078-0.007,0.152-0.017,0.205-0.036c0.057-0.011,0.105-0.027,0.129-0.051
			c0.025-0.024,0.041-0.043,0.025-0.064l-0.512-1.043c-0.008-0.024-0.039-0.04-0.088-0.063c-0.039-0.017-0.094-0.031-0.174-0.048
			c-0.064-0.017-0.152-0.032-0.232-0.032c-0.094-0.008-0.189-0.015-0.285-0.015h-4.445c-0.086,0-0.184,0.007-0.262,0.015
			c-0.08,0-0.152,0.016-0.207,0.032c-0.057,0.017-0.104,0.031-0.127,0.048c-0.031,0.023-0.041,0.039-0.031,0.063l0.42,1.043
			c0.008,0.021,0.033,0.04,0.08,0.064c0.047,0.023,0.104,0.04,0.176,0.051c0.07,0.02,0.15,0.029,0.238,0.036
			c0.09,0.009,0.191,0.012,0.287,0.012h4.531C103.83,82.756,103.926,82.753,104.006,82.744z"/>
		<path fill="#CC4E4E" d="M118.055,81.392H105.24c-0.096,0-0.191,0.007-0.271,0.015c-0.072,0-0.145,0.016-0.207,0.032
			c-0.047,0.017-0.096,0.031-0.119,0.048c-0.025,0.023-0.031,0.039-0.025,0.063l0.527,1.043c0.008,0.021,0.039,0.04,0.088,0.064
			c0.049,0.023,0.104,0.04,0.182,0.051c0.072,0.02,0.152,0.029,0.24,0.036c0.088,0.009,0.191,0.012,0.287,0.012h13.078
			c0.094,0,0.189-0.003,0.27-0.012c0.08-0.007,0.143-0.017,0.199-0.036c0.055-0.011,0.096-0.027,0.111-0.051
			c0.025-0.024,0.031-0.043,0.014-0.064l-0.746-1.043c-0.018-0.024-0.049-0.04-0.096-0.063c-0.049-0.017-0.119-0.031-0.191-0.048
			s-0.16-0.032-0.246-0.032C118.246,81.398,118.15,81.392,118.055,81.392z"/>
		<path fill="#CC4E4E" d="M23.606,81.184c0.057,0.016,0.129,0.031,0.2,0.035c0.08,0.008,0.167,0.021,0.264,0.021h9.572
			c0.096,0,0.191-0.013,0.278-0.021c0.088-0.004,0.168-0.02,0.24-0.035c0.08-0.013,0.136-0.032,0.184-0.049
			c0.046-0.022,0.07-0.04,0.087-0.062l0.55-0.991c0.007-0.021,0-0.049-0.024-0.068c-0.024-0.012-0.064-0.027-0.12-0.048
			c-0.056-0.009-0.12-0.02-0.2-0.028c-0.08-0.007-0.167-0.013-0.261-0.013h-9.382c-0.088,0-0.183,0.006-0.27,0.013
			c-0.089,0.009-0.177,0.02-0.248,0.028c-0.071,0.021-0.136,0.036-0.184,0.048c-0.04,0.02-0.08,0.047-0.094,0.068l-0.708,0.991
			c-0.018,0.022-0.018,0.04,0.006,0.062C23.52,81.151,23.552,81.171,23.606,81.184z"/>
		<path fill="#CC4E4E" d="M35.259,81.184c0.057,0.016,0.119,0.031,0.206,0.035c0.073,0.008,0.167,0.021,0.264,0.021h4.428
			c0.097,0,0.191-0.013,0.272-0.021c0.095-0.004,0.176-0.02,0.238-0.035c0.073-0.013,0.135-0.032,0.183-0.049
			c0.041-0.022,0.073-0.04,0.08-0.062l0.447-0.991c0.008-0.021,0-0.049-0.025-0.068c-0.023-0.012-0.07-0.027-0.125-0.048
			c-0.057-0.009-0.128-0.02-0.2-0.028c-0.08-0.007-0.167-0.013-0.263-0.013h-4.34c-0.095,0-0.183,0.006-0.279,0.013
			c-0.081,0.009-0.16,0.02-0.231,0.028c-0.072,0.021-0.126,0.036-0.175,0.048c-0.048,0.02-0.08,0.047-0.088,0.068l-0.533,0.991
			c-0.008,0.022-0.008,0.04,0.016,0.062C35.164,81.151,35.203,81.171,35.259,81.184z"/>
		<path fill="#CC4E4E" d="M41.862,81.184c0.055,0.016,0.126,0.031,0.206,0.035c0.081,0.008,0.176,0.021,0.27,0.021h4.43
			c0.094,0,0.19-0.013,0.271-0.021c0.087-0.004,0.167-0.02,0.238-0.035c0.063-0.013,0.12-0.032,0.16-0.049
			c0.047-0.022,0.08-0.04,0.08-0.062l0.359-0.991c0.007-0.021-0.008-0.049-0.033-0.068c-0.031-0.012-0.08-0.027-0.135-0.048
			c-0.057-0.009-0.127-0.02-0.208-0.028c-0.079-0.007-0.167-0.013-0.261-0.013h-4.341c-0.095,0-0.183,0.006-0.271,0.013
			c-0.081,0.009-0.16,0.02-0.23,0.028c-0.073,0.021-0.128,0.036-0.175,0.048c-0.04,0.02-0.064,0.047-0.072,0.068l-0.446,0.991
			c-0.008,0.022,0,0.04,0.032,0.062C41.757,81.151,41.805,81.171,41.862,81.184z"/>
		<path fill="#CC4E4E" d="M53.648,81.219c0.088-0.004,0.159-0.02,0.23-0.035c0.064-0.013,0.12-0.032,0.167-0.049
			c0.041-0.022,0.064-0.04,0.064-0.062l0.255-0.991c0.009-0.021-0.007-0.049-0.04-0.068c-0.032-0.012-0.071-0.027-0.135-0.048
			c-0.057-0.009-0.128-0.02-0.207-0.028c-0.08-0.007-0.167-0.013-0.265-0.013h-4.34c-0.094,0-0.19,0.006-0.27,0.013
			c-0.088,0.009-0.167,0.02-0.23,0.028c-0.064,0.021-0.12,0.036-0.159,0.048c-0.047,0.02-0.07,0.047-0.081,0.068l-0.341,0.991
			c0,0.022,0.007,0.04,0.039,0.062c0.025,0.017,0.071,0.036,0.128,0.049c0.057,0.016,0.135,0.031,0.208,0.035
			c0.087,0.008,0.175,0.021,0.271,0.021h4.428C53.473,81.239,53.561,81.227,53.648,81.219z"/>
		<path fill="#CC4E4E" d="M55.075,81.184c0.054,0.016,0.125,0.031,0.207,0.035c0.087,0.008,0.174,0.021,0.27,0.021h4.436
			c0.097,0,0.184-0.013,0.271-0.021c0.079-0.004,0.16-0.02,0.231-0.035c0.063-0.013,0.111-0.032,0.15-0.049
			c0.041-0.022,0.063-0.04,0.072-0.062l0.152-0.991c0-0.021-0.017-0.049-0.048-0.068c-0.033-0.012-0.08-0.027-0.145-0.048
			c-0.056-0.009-0.127-0.02-0.206-0.028c-0.088-0.007-0.177-0.013-0.271-0.013h-4.34c-0.096,0-0.183,0.006-0.271,0.013
			c-0.08,0.009-0.158,0.02-0.222,0.028c-0.065,0.021-0.119,0.036-0.161,0.048c-0.038,0.02-0.063,0.047-0.071,0.068l-0.239,0.991
			c-0.007,0.022,0.017,0.04,0.041,0.062C54.961,81.151,55.01,81.171,55.075,81.184z"/>
		<path fill="#CC4E4E" d="M61.676,81.184c0.064,0.016,0.129,0.031,0.215,0.035c0.087,0.008,0.175,0.021,0.271,0.021h4.428
			c0.103,0,0.19-0.013,0.278-0.021c0.08-0.004,0.159-0.02,0.215-0.035c0.071-0.013,0.119-0.032,0.159-0.049
			c0.039-0.022,0.057-0.04,0.057-0.062l0.056-0.991c0-0.021-0.017-0.049-0.056-0.068c-0.025-0.012-0.08-0.027-0.135-0.048
			c-0.065-0.009-0.137-0.02-0.224-0.028c-0.079-0.007-0.168-0.013-0.264-0.013h-4.341c-0.095,0-0.183,0.006-0.271,0.013
			c-0.08,0.009-0.159,0.02-0.223,0.028c-0.063,0.021-0.112,0.036-0.151,0.048c-0.039,0.02-0.055,0.047-0.063,0.068l-0.145,0.991
			c-0.008,0.022,0.017,0.04,0.049,0.062C61.565,81.151,61.613,81.171,61.676,81.184z"/>
		<path fill="#CC4E4E" d="M68.277,81.184c0.064,0.016,0.137,0.031,0.223,0.035c0.08,0.008,0.176,0.021,0.273,0.021h4.434
			c0.09,0,0.184-0.013,0.264-0.021c0.08-0.004,0.158-0.02,0.223-0.035c0.064-0.013,0.111-0.032,0.145-0.049
			c0.039-0.022,0.057-0.04,0.057-0.062l-0.049-0.991c0-0.021-0.018-0.049-0.055-0.068c-0.033-0.012-0.09-0.027-0.145-0.048
			c-0.064-0.009-0.143-0.02-0.223-0.028c-0.08-0.007-0.176-0.013-0.264-0.013h-4.34c-0.104,0-0.191,0.006-0.271,0.013
			c-0.078,0.009-0.15,0.02-0.215,0.028c-0.072,0.021-0.119,0.036-0.152,0.048c-0.039,0.02-0.063,0.047-0.063,0.068l-0.039,0.991
			c0,0.022,0.015,0.04,0.057,0.062C68.168,81.151,68.215,81.171,68.277,81.184z"/>
		<path fill="#CC4E4E" d="M74.729,81.135c0.041,0.017,0.096,0.036,0.152,0.049c0.07,0.016,0.145,0.031,0.23,0.035
			c0.08,0.008,0.176,0.021,0.27,0.021h4.43c0.096,0,0.182-0.013,0.271-0.021c0.078-0.004,0.158-0.02,0.215-0.035
			c0.064-0.013,0.111-0.032,0.143-0.049c0.033-0.022,0.047-0.04,0.047-0.062l-0.143-0.991c0-0.021-0.023-0.049-0.062-0.068
			c-0.033-0.012-0.088-0.027-0.152-0.048c-0.064-0.009-0.137-0.02-0.223-0.028c-0.08-0.007-0.174-0.013-0.271-0.013h-4.34
			c-0.088,0-0.184,0.006-0.264,0.013c-0.08,0.009-0.158,0.02-0.215,0.028c-0.064,0.021-0.109,0.036-0.143,0.048
			c-0.033,0.02-0.057,0.047-0.057,0.068l0.057,0.991C74.674,81.095,74.697,81.112,74.729,81.135z"/>
		<path fill="#CC4E4E" d="M86.691,81.219c0.08-0.004,0.15-0.02,0.207-0.035c0.062-0.013,0.111-0.032,0.135-0.049
			c0.041-0.022,0.049-0.04,0.049-0.062l-0.248-0.991c0-0.021-0.023-0.049-0.062-0.068c-0.041-0.012-0.098-0.027-0.16-0.048
			c-0.062-0.009-0.143-0.02-0.221-0.028c-0.088-0.007-0.176-0.013-0.271-0.013h-4.342c-0.096,0-0.184,0.006-0.264,0.013
			c-0.088,0.009-0.158,0.02-0.213,0.028c-0.064,0.021-0.113,0.036-0.145,0.048c-0.033,0.02-0.041,0.047-0.041,0.068l0.152,0.991
			c0,0.022,0.023,0.04,0.064,0.062c0.039,0.017,0.094,0.036,0.16,0.049c0.062,0.016,0.143,0.031,0.229,0.035
			c0.08,0.008,0.176,0.021,0.271,0.021h4.428C86.516,81.239,86.611,81.227,86.691,81.219z"/>
		<path fill="#CC4E4E" d="M87.934,81.135c0.039,0.017,0.096,0.036,0.16,0.049c0.062,0.016,0.143,0.031,0.229,0.035
			c0.09,0.008,0.184,0.021,0.279,0.021h4.43c0.094,0,0.191-0.013,0.264-0.021c0.088-0.004,0.158-0.02,0.207-0.035
			c0.064-0.013,0.109-0.032,0.143-0.049c0.023-0.022,0.031-0.04,0.031-0.062l-0.342-0.991c-0.01-0.021-0.033-0.049-0.072-0.068
			c-0.039-0.012-0.096-0.027-0.166-0.048c-0.064-0.009-0.145-0.02-0.232-0.028c-0.078-0.007-0.174-0.013-0.262-0.013h-4.35
			c-0.096,0-0.182,0.006-0.262,0.013c-0.08,0.009-0.152,0.02-0.207,0.028c-0.064,0.021-0.105,0.036-0.135,0.048
			c-0.025,0.02-0.049,0.047-0.041,0.068l0.256,0.991C87.863,81.095,87.895,81.112,87.934,81.135z"/>
		<path fill="#CC4E4E" d="M94.529,81.135c0.039,0.017,0.094,0.036,0.166,0.049c0.07,0.016,0.152,0.031,0.24,0.035
			c0.086,0.008,0.176,0.021,0.277,0.021h4.43c0.094,0,0.182-0.013,0.262-0.021c0.078-0.004,0.15-0.02,0.205-0.035
			c0.057-0.013,0.105-0.032,0.129-0.049c0.023-0.022,0.039-0.04,0.023-0.062l-0.43-0.991c-0.016-0.021-0.039-0.049-0.086-0.068
			c-0.041-0.012-0.098-0.027-0.168-0.048c-0.064-0.009-0.145-0.02-0.232-0.028c-0.088-0.007-0.174-0.013-0.27-0.013h-4.35
			c-0.086,0-0.174,0.006-0.262,0.013c-0.072,0.009-0.143,0.02-0.199,0.028c-0.055,0.021-0.104,0.036-0.127,0.048
			c-0.033,0.02-0.041,0.047-0.041,0.068l0.359,0.991C94.457,81.095,94.488,81.112,94.529,81.135z"/>
		<path fill="#CC4E4E" d="M101.053,81.072c0.006,0.022,0.029,0.04,0.078,0.062c0.039,0.017,0.104,0.036,0.168,0.049
			c0.07,0.016,0.15,0.031,0.236,0.035c0.09,0.008,0.186,0.021,0.289,0.021h4.426c0.098,0,0.184-0.013,0.266-0.021
			c0.078-0.004,0.141-0.02,0.197-0.035c0.057-0.013,0.104-0.032,0.127-0.049c0.025-0.022,0.033-0.04,0.018-0.062l-0.535-0.991
			c-0.016-0.021-0.039-0.049-0.088-0.068c-0.047-0.012-0.102-0.027-0.174-0.048c-0.072-0.009-0.15-0.02-0.232-0.028
			c-0.086-0.007-0.182-0.013-0.277-0.013h-4.34c-0.096,0-0.184,0.006-0.264,0.013c-0.072,0.009-0.143,0.02-0.199,0.028
			c-0.057,0.021-0.096,0.036-0.127,0.048c-0.025,0.02-0.033,0.047-0.025,0.068L101.053,81.072z"/>
		<path fill="#CC4E4E" d="M117.02,79.924h-9.254c-0.098,0-0.186,0.006-0.264,0.013c-0.08,0.009-0.145,0.02-0.199,0.028
			c-0.047,0.021-0.096,0.036-0.119,0.048c-0.025,0.02-0.033,0.047-0.018,0.068l0.543,0.991c0.016,0.022,0.047,0.04,0.096,0.062
			c0.039,0.017,0.104,0.036,0.176,0.049c0.07,0.016,0.15,0.031,0.238,0.035c0.088,0.008,0.184,0.021,0.287,0.021h9.438
			c0.096,0,0.184-0.013,0.262-0.021c0.08-0.004,0.145-0.02,0.199-0.035c0.047-0.013,0.09-0.032,0.111-0.049
			c0.023-0.022,0.023-0.04,0.008-0.062l-0.709-0.991c-0.016-0.021-0.047-0.049-0.092-0.068c-0.051-0.012-0.113-0.027-0.186-0.048
			c-0.072-0.009-0.15-0.02-0.246-0.028C117.211,79.93,117.113,79.924,117.02,79.924z"/>
		<path fill="#CC4E4E" d="M24.643,79.733c0.055,0.017,0.119,0.025,0.191,0.032c0.081,0.009,0.176,0.017,0.263,0.017h7.605
			c0.088,0,0.184-0.008,0.271-0.017c0.088-0.007,0.167-0.016,0.239-0.032c0.064-0.011,0.128-0.031,0.167-0.051
			c0.047-0.013,0.081-0.036,0.087-0.06l0.552-0.949c0.015-0.02,0.007-0.038-0.018-0.06c-0.023-0.012-0.064-0.035-0.11-0.042
			c-0.057-0.018-0.128-0.028-0.201-0.033c-0.079-0.009-0.158-0.009-0.253-0.009h-7.455c-0.095,0-0.183,0-0.271,0.009
			c-0.087,0.005-0.167,0.016-0.229,0.033c-0.082,0.007-0.136,0.03-0.184,0.042c-0.048,0.021-0.08,0.04-0.096,0.06l-0.677,0.949
			c-0.016,0.023-0.007,0.047,0.007,0.06C24.556,79.702,24.595,79.723,24.643,79.733z"/>
		<path fill="#CC4E4E" d="M39.401,79.766c0.087-0.007,0.166-0.016,0.23-0.032c0.071-0.011,0.128-0.031,0.167-0.051
			c0.049-0.013,0.079-0.036,0.088-0.06l0.454-0.949c0.007-0.02,0-0.038-0.023-0.06c-0.025-0.012-0.072-0.035-0.121-0.042
			c-0.055-0.018-0.127-0.028-0.198-0.033c-0.081-0.009-0.167-0.009-0.256-0.009h-4.253c-0.096,0-0.183,0-0.262,0.009
			c-0.088,0.005-0.168,0.016-0.239,0.033c-0.064,0.007-0.119,0.03-0.167,0.042c-0.04,0.021-0.072,0.04-0.087,0.06l-0.535,0.949
			c-0.016,0.023-0.007,0.047,0.017,0.06c0.024,0.02,0.063,0.04,0.12,0.051c0.054,0.017,0.119,0.025,0.2,0.032
			c0.079,0.009,0.167,0.017,0.263,0.017h4.332C39.225,79.782,39.312,79.774,39.401,79.766z"/>
		<path fill="#CC4E4E" d="M45.859,79.766c0.088-0.007,0.159-0.016,0.23-0.032c0.074-0.011,0.129-0.031,0.168-0.051
			c0.041-0.013,0.065-0.036,0.079-0.06l0.36-0.949c0.008-0.02,0-0.038-0.032-0.06c-0.032-0.012-0.072-0.035-0.128-0.042
			c-0.056-0.018-0.12-0.028-0.2-0.033c-0.079-0.009-0.166-0.009-0.254-0.009h-4.244c-0.097,0-0.19,0-0.271,0.009
			c-0.087,0.005-0.167,0.016-0.231,0.033c-0.064,0.007-0.118,0.03-0.167,0.042c-0.04,0.021-0.071,0.04-0.08,0.06l-0.438,0.949
			c-0.016,0.023,0,0.047,0.024,0.06c0.024,0.02,0.065,0.04,0.127,0.051c0.056,0.017,0.121,0.025,0.191,0.032
			c0.08,0.009,0.176,0.017,0.263,0.017h4.332C45.684,79.782,45.78,79.774,45.859,79.766z"/>
		<path fill="#CC4E4E" d="M52.327,79.766c0.08-0.007,0.158-0.016,0.231-0.032c0.055-0.011,0.111-0.031,0.152-0.051
			c0.04-0.013,0.07-0.036,0.07-0.06l0.271-0.949c0.007-0.02-0.007-0.038-0.04-0.06c-0.032-0.012-0.073-0.035-0.127-0.042
			c-0.056-0.018-0.127-0.028-0.208-0.033c-0.071-0.009-0.167-0.009-0.254-0.009h-4.254c-0.087,0-0.175,0-0.262,0.009
			c-0.081,0.005-0.16,0.016-0.224,0.033c-0.062,0.007-0.12,0.03-0.158,0.042c-0.041,0.021-0.071,0.04-0.081,0.06l-0.35,0.949
			c-0.007,0.023,0.008,0.047,0.032,0.06c0.032,0.02,0.072,0.04,0.136,0.051c0.055,0.017,0.119,0.025,0.199,0.032
			c0.08,0.009,0.167,0.017,0.263,0.017h4.332C52.15,79.782,52.239,79.774,52.327,79.766z"/>
		<path fill="#CC4E4E" d="M58.792,79.766c0.08-0.007,0.16-0.016,0.224-0.032c0.063-0.011,0.111-0.031,0.151-0.051
			c0.041-0.013,0.063-0.036,0.063-0.06l0.177-0.949c0-0.02-0.016-0.038-0.041-0.06c-0.032-0.012-0.079-0.035-0.136-0.042
			c-0.063-0.018-0.133-0.028-0.206-0.033c-0.088-0.009-0.167-0.009-0.264-0.009h-4.245c-0.095,0-0.19,0-0.262,0.009
			c-0.087,0.005-0.159,0.016-0.223,0.033c-0.072,0.007-0.127,0.03-0.167,0.042c-0.031,0.021-0.056,0.04-0.063,0.06l-0.255,0.949
			c-0.008,0.023,0.006,0.047,0.041,0.06c0.022,0.02,0.07,0.04,0.133,0.051c0.057,0.017,0.128,0.025,0.208,0.032
			c0.081,0.009,0.168,0.017,0.264,0.017h4.333C58.618,79.782,58.706,79.774,58.792,79.766z"/>
		<path fill="#CC4E4E" d="M65.251,79.766c0.087-0.007,0.159-0.016,0.224-0.032c0.063-0.011,0.11-0.031,0.15-0.051
			c0.032-0.013,0.058-0.036,0.058-0.06l0.078-0.949c0-0.02-0.016-0.038-0.048-0.06c-0.03-0.012-0.078-0.035-0.143-0.042
			c-0.056-0.018-0.129-0.028-0.209-0.033c-0.078-0.009-0.165-0.009-0.261-0.009h-4.245c-0.096,0-0.184,0-0.263,0.009
			c-0.087,0.005-0.159,0.016-0.223,0.033c-0.064,0.007-0.112,0.03-0.151,0.042c-0.032,0.021-0.064,0.04-0.064,0.06l-0.16,0.949
			c0,0.023,0.007,0.047,0.048,0.06c0.023,0.02,0.071,0.04,0.136,0.051c0.056,0.017,0.127,0.025,0.215,0.032
			c0.072,0.009,0.166,0.017,0.263,0.017h4.325C65.078,79.782,65.172,79.774,65.251,79.766z"/>
		<path fill="#CC4E4E" d="M71.719,79.766c0.08-0.007,0.152-0.016,0.215-0.032c0.064-0.011,0.113-0.031,0.143-0.051
			c0.033-0.013,0.057-0.036,0.057-0.06l-0.016-0.949c0-0.02-0.023-0.038-0.055-0.06c-0.031-0.012-0.08-0.035-0.145-0.042
			c-0.064-0.018-0.135-0.028-0.217-0.033c-0.078-0.009-0.166-0.009-0.26-0.009h-4.247c-0.096,0-0.183,0-0.262,0.009
			c-0.081,0.005-0.152,0.016-0.216,0.033c-0.063,0.007-0.111,0.03-0.151,0.042c-0.032,0.021-0.055,0.04-0.055,0.06l-0.064,0.949
			c0,0.023,0.017,0.047,0.047,0.06c0.033,0.02,0.081,0.04,0.144,0.051c0.063,0.017,0.136,0.025,0.215,0.032
			c0.081,0.009,0.168,0.017,0.263,0.017h4.333C71.545,79.782,71.631,79.774,71.719,79.766z"/>
		<path fill="#CC4E4E" d="M78.178,79.766c0.08-0.007,0.16-0.016,0.215-0.032c0.064-0.011,0.111-0.031,0.137-0.051
			c0.039-0.013,0.053-0.036,0.047-0.06l-0.105-0.949c-0.006-0.02-0.021-0.038-0.061-0.06c-0.033-0.012-0.088-0.035-0.145-0.042
			c-0.064-0.018-0.137-0.028-0.223-0.033c-0.08-0.009-0.168-0.009-0.256-0.009h-4.252c-0.094,0-0.184,0-0.264,0.009
			c-0.078,0.005-0.15,0.016-0.207,0.033c-0.064,0.007-0.111,0.03-0.143,0.042c-0.041,0.021-0.057,0.04-0.057,0.06l0.025,0.949
			c0,0.023,0.021,0.047,0.062,0.06c0.031,0.02,0.08,0.04,0.143,0.051c0.064,0.017,0.137,0.025,0.225,0.032
			c0.078,0.009,0.166,0.017,0.262,0.017h4.332C78.01,79.782,78.098,79.774,78.178,79.766z"/>
		<path fill="#CC4E4E" d="M84.645,79.766c0.08-0.007,0.152-0.016,0.207-0.032c0.064-0.011,0.105-0.031,0.135-0.051
			c0.031-0.013,0.049-0.036,0.041-0.06l-0.199-0.949c-0.008-0.02-0.031-0.038-0.072-0.06c-0.031-0.012-0.088-0.035-0.15-0.042
			c-0.064-0.018-0.135-0.028-0.217-0.033c-0.086-0.009-0.174-0.009-0.27-0.009h-4.244c-0.088,0-0.176,0-0.254,0.009
			c-0.088,0.005-0.152,0.016-0.217,0.033c-0.057,0.007-0.104,0.03-0.137,0.042c-0.029,0.021-0.047,0.04-0.047,0.06l0.119,0.949
			c0.008,0.023,0.033,0.047,0.064,0.06c0.041,0.02,0.088,0.04,0.15,0.051c0.066,0.017,0.145,0.025,0.232,0.032
			c0.07,0.009,0.168,0.017,0.262,0.017h4.324C84.471,79.782,84.564,79.774,84.645,79.766z"/>
		<path fill="#CC4E4E" d="M91.104,79.766c0.08-0.007,0.152-0.016,0.207-0.032c0.064-0.011,0.104-0.031,0.135-0.051
			c0.033-0.013,0.041-0.036,0.033-0.06l-0.303-0.949c0-0.02-0.033-0.038-0.064-0.06c-0.039-0.012-0.094-0.035-0.158-0.042
			c-0.064-0.018-0.143-0.028-0.225-0.033c-0.078-0.009-0.176-0.009-0.27-0.009h-4.244c-0.096,0-0.176,0-0.264,0.009
			c-0.07,0.005-0.143,0.016-0.199,0.033c-0.064,0.007-0.104,0.03-0.135,0.042c-0.033,0.021-0.041,0.04-0.041,0.06l0.217,0.949
			c0.006,0.023,0.029,0.047,0.07,0.06c0.039,0.02,0.088,0.04,0.152,0.051c0.07,0.017,0.143,0.025,0.229,0.032
			c0.088,0.009,0.176,0.017,0.271,0.017h4.334C90.938,79.782,91.023,79.774,91.104,79.766z"/>
		<path fill="#CC4E4E" d="M97.57,79.766c0.08-0.007,0.15-0.016,0.207-0.032c0.055-0.011,0.096-0.031,0.127-0.051
			c0.023-0.013,0.031-0.036,0.031-0.06l-0.396-0.949c-0.008-0.02-0.041-0.038-0.08-0.06c-0.039-0.012-0.096-0.035-0.168-0.042
			c-0.062-0.018-0.135-0.028-0.223-0.033c-0.078-0.009-0.174-0.009-0.262-0.009h-4.254c-0.088,0-0.182,0-0.254,0.009
			c-0.08,0.005-0.143,0.016-0.199,0.033c-0.057,0.007-0.104,0.03-0.137,0.042c-0.021,0.021-0.039,0.04-0.031,0.06l0.311,0.949
			c0.008,0.023,0.041,0.047,0.072,0.06c0.039,0.02,0.096,0.04,0.158,0.051c0.072,0.017,0.152,0.025,0.24,0.032
			c0.08,0.009,0.168,0.017,0.262,0.017h4.334C97.404,79.782,97.49,79.774,97.57,79.766z"/>
		<path fill="#CC4E4E" d="M110.496,79.766c0.08-0.007,0.143-0.016,0.199-0.032c0.057-0.011,0.086-0.031,0.119-0.051
			c0.016-0.013,0.033-0.036,0.016-0.06l-0.58-0.949c-0.016-0.02-0.049-0.038-0.096-0.06c-0.041-0.012-0.096-0.035-0.168-0.042
			c-0.064-0.018-0.15-0.028-0.23-0.033c-0.086-0.009-0.184-0.009-0.271-0.009h-4.252c-0.088,0-0.176,0-0.256,0.009
			c-0.07,0.005-0.135,0.016-0.191,0.033c-0.055,0.007-0.096,0.03-0.119,0.042c-0.023,0.021-0.039,0.04-0.023,0.06l0.502,0.949
			c0.008,0.023,0.039,0.047,0.08,0.06c0.047,0.02,0.104,0.04,0.176,0.051c0.07,0.017,0.15,0.025,0.238,0.032
			c0.086,0.009,0.174,0.017,0.271,0.017h4.332C110.338,79.782,110.416,79.774,110.496,79.766z"/>
		<path fill="#CC4E4E" d="M104.037,79.766c0.072-0.007,0.145-0.016,0.199-0.032c0.057-0.011,0.096-0.031,0.119-0.051
			c0.033-0.013,0.041-0.036,0.025-0.06l-0.486-0.949c-0.016-0.02-0.041-0.038-0.088-0.06c-0.041-0.012-0.096-0.035-0.168-0.042
			c-0.062-0.018-0.143-0.028-0.23-0.033c-0.08-0.009-0.176-0.009-0.264-0.009H98.9c-0.096,0-0.182,0-0.254,0.009
			c-0.08,0.005-0.152,0.016-0.207,0.033c-0.057,0.007-0.098,0.03-0.129,0.042c-0.023,0.021-0.031,0.04-0.023,0.06l0.406,0.949
			c0.008,0.023,0.031,0.047,0.08,0.06c0.039,0.02,0.104,0.04,0.168,0.051c0.064,0.017,0.143,0.025,0.23,0.032
			c0.086,0.009,0.174,0.017,0.271,0.017h4.332C103.871,79.782,103.959,79.774,104.037,79.766z"/>
		<path fill="#CC4E4E" d="M116.031,78.53h-4.244c-0.096,0-0.184,0-0.254,0.009c-0.072,0.005-0.146,0.016-0.193,0.033
			c-0.057,0.007-0.094,0.03-0.119,0.042c-0.016,0.021-0.033,0.04-0.016,0.06l0.598,0.949c0.016,0.023,0.047,0.047,0.096,0.06
			c0.047,0.02,0.104,0.04,0.168,0.051c0.078,0.017,0.158,0.025,0.246,0.032c0.088,0.009,0.176,0.017,0.27,0.017h4.334
			c0.096,0,0.174-0.008,0.254-0.017c0.08-0.007,0.145-0.016,0.199-0.032c0.047-0.011,0.088-0.031,0.111-0.051
			c0.016-0.013,0.025-0.036,0.008-0.06l-0.678-0.949c-0.016-0.02-0.045-0.038-0.094-0.06c-0.047-0.012-0.104-0.035-0.176-0.042
			c-0.07-0.018-0.152-0.028-0.24-0.033C116.215,78.53,116.127,78.53,116.031,78.53z"/>
		<path fill="#CC4E4E" d="M25.647,78.332c0.047,0.008,0.111,0.021,0.191,0.028c0.071,0.012,0.158,0.012,0.253,0.012h4.236
			c0.09,0,0.185,0,0.273-0.012c0.079-0.008,0.158-0.021,0.222-0.028c0.071-0.016,0.135-0.031,0.183-0.047
			c0.032-0.018,0.072-0.037,0.081-0.057l0.573-0.912c0.016-0.02,0-0.039-0.016-0.056c-0.024-0.02-0.057-0.03-0.113-0.044
			c-0.046-0.016-0.111-0.024-0.19-0.031c-0.071-0.007-0.159-0.013-0.247-0.013h-4.158c-0.094,0-0.181,0.006-0.261,0.013
			c-0.089,0.007-0.168,0.016-0.232,0.031c-0.07,0.014-0.135,0.024-0.174,0.044c-0.049,0.017-0.072,0.036-0.097,0.056l-0.646,0.912
			c-0.016,0.02-0.007,0.039,0.009,0.057C25.559,78.301,25.59,78.316,25.647,78.332z"/>
		<path fill="#CC4E4E" d="M31.979,78.332c0.055,0.008,0.119,0.021,0.19,0.028c0.081,0.012,0.16,0.012,0.255,0.012h4.238
			c0.094,0,0.183,0,0.27-0.012c0.079-0.008,0.159-0.021,0.231-0.028c0.062-0.016,0.119-0.031,0.166-0.047
			c0.041-0.018,0.064-0.037,0.081-0.057l0.486-0.912c0.008-0.02,0-0.039-0.023-0.056c-0.024-0.02-0.071-0.03-0.12-0.044
			c-0.056-0.016-0.119-0.024-0.199-0.031c-0.062-0.007-0.15-0.013-0.239-0.013h-4.166c-0.087,0-0.175,0.006-0.262,0.013
			c-0.081,0.007-0.161,0.016-0.225,0.031c-0.071,0.014-0.126,0.024-0.166,0.044c-0.048,0.017-0.08,0.036-0.088,0.056l-0.564,0.912
			c-0.009,0.02,0,0.039,0.015,0.057C31.89,78.301,31.93,78.316,31.979,78.332z"/>
		<path fill="#CC4E4E" d="M38.309,78.332c0.049,0.008,0.12,0.021,0.2,0.028c0.071,0.012,0.159,0.012,0.247,0.012H43
			c0.087,0,0.183,0,0.262-0.012c0.081-0.008,0.159-0.021,0.232-0.028c0.064-0.016,0.118-0.031,0.159-0.047
			c0.04-0.018,0.07-0.037,0.079-0.057l0.392-0.912c0.007-0.02-0.009-0.039-0.034-0.056c-0.023-0.02-0.064-0.03-0.119-0.044
			c-0.056-0.016-0.119-0.024-0.191-0.031c-0.079-0.007-0.16-0.013-0.254-0.013h-4.157c-0.088,0-0.183,0.006-0.263,0.013
			c-0.081,0.007-0.159,0.016-0.224,0.031c-0.071,0.014-0.126,0.024-0.167,0.044c-0.04,0.017-0.072,0.036-0.08,0.056l-0.47,0.912
			c-0.008,0.02,0,0.039,0.024,0.057C38.213,78.301,38.255,78.316,38.309,78.332z"/>
		<path fill="#CC4E4E" d="M44.641,78.332c0.056,0.008,0.119,0.021,0.2,0.028c0.079,0.012,0.166,0.012,0.252,0.012h4.238
			c0.096,0,0.183,0,0.263-0.012c0.088-0.008,0.16-0.021,0.231-0.028c0.064-0.016,0.12-0.031,0.151-0.047
			c0.041-0.018,0.072-0.037,0.072-0.057l0.304-0.912c0.007-0.02,0-0.039-0.034-0.056c-0.031-0.02-0.071-0.03-0.126-0.044
			c-0.057-0.016-0.12-0.024-0.198-0.031c-0.081-0.007-0.161-0.013-0.248-0.013H45.58c-0.087,0-0.174,0.006-0.254,0.013
			c-0.088,0.007-0.16,0.016-0.232,0.031c-0.063,0.014-0.111,0.024-0.157,0.044c-0.032,0.017-0.064,0.036-0.072,0.056l-0.381,0.912
			c-0.009,0.02,0.006,0.039,0.029,0.057C44.545,78.301,44.584,78.316,44.641,78.332z"/>
		<path fill="#CC4E4E" d="M50.972,78.332c0.057,0.008,0.128,0.021,0.199,0.028c0.081,0.012,0.168,0.012,0.264,0.012h4.237
			c0.087,0,0.177,0,0.264-0.012c0.079-0.008,0.157-0.021,0.215-0.028c0.062-0.016,0.119-0.031,0.157-0.047
			c0.034-0.018,0.056-0.037,0.064-0.057l0.207-0.912c0.009-0.02-0.006-0.039-0.039-0.056c-0.024-0.02-0.072-0.03-0.127-0.044
			c-0.056-0.016-0.12-0.024-0.199-0.031c-0.079-0.007-0.167-0.013-0.254-0.013H51.8c-0.094,0-0.175,0.006-0.262,0.013
			c-0.071,0.007-0.152,0.016-0.215,0.031c-0.064,0.014-0.112,0.024-0.152,0.044c-0.039,0.017-0.063,0.036-0.071,0.056l-0.294,0.912
			c0,0.02,0.007,0.039,0.041,0.057C50.869,78.301,50.917,78.316,50.972,78.332z"/>
		<path fill="#CC4E4E" d="M57.304,78.332c0.055,0.008,0.127,0.021,0.199,0.028c0.08,0.012,0.167,0.012,0.263,0.012h4.237
			c0.096,0,0.183,0,0.264-0.012c0.08-0.008,0.15-0.021,0.214-0.028c0.064-0.016,0.12-0.031,0.152-0.047
			c0.038-0.018,0.063-0.037,0.063-0.057l0.119-0.912c0-0.02-0.017-0.039-0.047-0.056c-0.033-0.02-0.072-0.03-0.136-0.044
			c-0.057-0.016-0.128-0.024-0.206-0.031c-0.073-0.007-0.16-0.013-0.257-0.013h-4.157c-0.088,0-0.175,0.006-0.255,0.013
			c-0.078,0.007-0.158,0.016-0.214,0.031c-0.063,0.014-0.119,0.024-0.151,0.044c-0.04,0.017-0.063,0.036-0.063,0.056l-0.199,0.912
			c-0.007,0.02,0.007,0.039,0.038,0.057C57.193,78.301,57.24,78.316,57.304,78.332z"/>
		<path fill="#CC4E4E" d="M63.635,78.332c0.057,0.008,0.127,0.021,0.207,0.028c0.08,0.012,0.168,0.012,0.263,0.012h4.237
			c0.096,0,0.176,0,0.264-0.012c0.07-0.008,0.15-0.021,0.207-0.028c0.064-0.016,0.111-0.031,0.15-0.047
			c0.033-0.018,0.049-0.037,0.049-0.057l0.031-0.912c0-0.02-0.016-0.039-0.057-0.056c-0.023-0.02-0.07-0.03-0.135-0.044
			c-0.055-0.016-0.127-0.024-0.207-0.031s-0.168-0.013-0.256-0.013h-4.157c-0.095,0-0.175,0.006-0.254,0.013
			s-0.151,0.016-0.216,0.031c-0.063,0.014-0.111,0.024-0.142,0.044c-0.041,0.017-0.064,0.036-0.064,0.056l-0.112,0.912
			c0,0.02,0.024,0.039,0.049,0.057C63.523,78.301,63.572,78.316,63.635,78.332z"/>
		<path fill="#CC4E4E" d="M69.967,78.332c0.064,0.008,0.127,0.021,0.215,0.028c0.08,0.012,0.158,0.012,0.256,0.012h4.236
			c0.096,0,0.184,0,0.264-0.012c0.078-0.008,0.15-0.021,0.205-0.028c0.064-0.016,0.104-0.031,0.145-0.047
			c0.031-0.018,0.045-0.037,0.045-0.057l-0.061-0.912c0-0.02-0.025-0.039-0.057-0.056c-0.031-0.02-0.078-0.03-0.143-0.044
			c-0.057-0.016-0.135-0.024-0.209-0.031c-0.078-0.007-0.166-0.013-0.254-0.013h-4.156c-0.096,0-0.184,0.006-0.264,0.013
			s-0.143,0.016-0.205,0.031c-0.059,0.014-0.113,0.024-0.145,0.044c-0.031,0.017-0.047,0.036-0.047,0.056l-0.018,0.912
			c0,0.02,0.018,0.039,0.049,0.057C69.855,78.301,69.904,78.316,69.967,78.332z"/>
		<path fill="#CC4E4E" d="M76.146,78.285c0.041,0.016,0.088,0.031,0.15,0.047c0.057,0.008,0.129,0.021,0.217,0.028
			c0.08,0.012,0.168,0.012,0.254,0.012h4.246c0.096,0,0.174,0,0.254-0.012c0.082-0.008,0.152-0.021,0.207-0.028
			c0.055-0.016,0.105-0.031,0.135-0.047c0.033-0.018,0.049-0.037,0.041-0.057l-0.152-0.912c0-0.02-0.023-0.039-0.057-0.056
			c-0.039-0.02-0.092-0.03-0.15-0.044c-0.062-0.016-0.135-0.024-0.213-0.031c-0.074-0.007-0.16-0.013-0.256-0.013h-4.156
			c-0.098,0-0.178,0.006-0.256,0.013c-0.08,0.007-0.15,0.016-0.207,0.031c-0.057,0.014-0.104,0.024-0.137,0.044
			c-0.031,0.017-0.055,0.036-0.055,0.056l0.08,0.912C76.092,78.248,76.115,78.268,76.146,78.285z"/>
		<path fill="#CC4E4E" d="M82.471,78.285c0.039,0.016,0.096,0.031,0.15,0.047c0.072,0.008,0.145,0.021,0.225,0.028
			c0.078,0.012,0.174,0.012,0.262,0.012h4.236c0.098,0,0.184,0,0.256-0.012c0.078-0.008,0.15-0.021,0.205-0.028
			c0.059-0.016,0.105-0.031,0.139-0.047c0.029-0.018,0.039-0.037,0.039-0.057l-0.248-0.912c-0.008-0.02-0.031-0.039-0.062-0.056
			c-0.041-0.02-0.096-0.03-0.16-0.044c-0.064-0.016-0.135-0.024-0.215-0.031s-0.168-0.013-0.264-0.013h-4.156
			c-0.088,0-0.176,0.006-0.256,0.013c-0.07,0.007-0.143,0.016-0.197,0.031c-0.057,0.014-0.105,0.024-0.137,0.044
			c-0.033,0.017-0.039,0.036-0.039,0.056l0.16,0.912C82.414,78.248,82.439,78.268,82.471,78.285z"/>
		<path fill="#CC4E4E" d="M88.803,78.285c0.031,0.016,0.096,0.031,0.15,0.047c0.07,0.008,0.143,0.021,0.223,0.028
			c0.088,0.012,0.176,0.012,0.264,0.012h4.244c0.09,0,0.176,0,0.256-0.012c0.07-0.008,0.143-0.021,0.199-0.028
			c0.055-0.016,0.104-0.031,0.127-0.047c0.031-0.018,0.039-0.037,0.031-0.057l-0.334-0.912c-0.008-0.02-0.031-0.039-0.072-0.056
			c-0.039-0.02-0.096-0.03-0.16-0.044c-0.062-0.016-0.135-0.024-0.213-0.031c-0.09-0.007-0.178-0.013-0.264-0.013h-4.158
			c-0.086,0-0.174,0.006-0.246,0.013c-0.078,0.007-0.15,0.016-0.207,0.031c-0.055,0.014-0.094,0.024-0.127,0.044
			c-0.031,0.017-0.049,0.036-0.039,0.056l0.252,0.912C88.738,78.248,88.762,78.268,88.803,78.285z"/>
		<path fill="#CC4E4E" d="M101.377,78.229c0.008,0.02,0.039,0.039,0.072,0.057c0.047,0.016,0.104,0.031,0.176,0.047
			c0.062,0.008,0.143,0.021,0.221,0.028c0.088,0.012,0.176,0.012,0.266,0.012h4.244c0.088,0,0.176,0,0.254-0.012
			c0.072-0.008,0.135-0.021,0.191-0.028c0.057-0.016,0.096-0.031,0.119-0.047c0.018-0.018,0.033-0.037,0.018-0.057l-0.52-0.912
			c-0.008-0.02-0.031-0.039-0.078-0.056c-0.041-0.02-0.096-0.03-0.16-0.044c-0.07-0.016-0.143-0.024-0.23-0.031
			c-0.086-0.007-0.168-0.013-0.262-0.013h-4.16c-0.086,0-0.176,0.006-0.252,0.013c-0.074,0.007-0.137,0.016-0.193,0.031
			c-0.055,0.014-0.096,0.024-0.119,0.044c-0.023,0.017-0.031,0.036-0.023,0.056L101.377,78.229z"/>
		<path fill="#CC4E4E" d="M95.127,78.285c0.039,0.016,0.094,0.031,0.158,0.047c0.062,0.008,0.145,0.021,0.23,0.028
			c0.078,0.012,0.176,0.012,0.262,0.012h4.238c0.094,0,0.184,0,0.256-0.012c0.08-0.008,0.143-0.021,0.197-0.028
			c0.055-0.016,0.096-0.031,0.127-0.047c0.025-0.018,0.033-0.037,0.025-0.057l-0.432-0.912c-0.008-0.02-0.031-0.039-0.08-0.056
			c-0.029-0.02-0.094-0.03-0.156-0.044c-0.064-0.016-0.146-0.024-0.225-0.031c-0.08-0.007-0.166-0.013-0.254-0.013h-4.158
			c-0.096,0-0.184,0.006-0.254,0.013c-0.08,0.007-0.145,0.016-0.199,0.031c-0.057,0.014-0.098,0.024-0.119,0.044
			c-0.033,0.017-0.041,0.036-0.033,0.056l0.344,0.912C95.062,78.248,95.086,78.268,95.127,78.285z"/>
		<path fill="#CC4E4E" d="M115.076,77.173h-7.408c-0.096,0-0.182,0.006-0.254,0.013c-0.078,0.007-0.143,0.016-0.191,0.031
			c-0.057,0.014-0.096,0.024-0.111,0.044c-0.031,0.017-0.039,0.036-0.023,0.056l0.525,0.912c0.016,0.02,0.041,0.039,0.08,0.057
			c0.047,0.016,0.104,0.031,0.176,0.047c0.07,0.008,0.143,0.021,0.229,0.028c0.09,0.012,0.178,0.012,0.264,0.012h7.566
			c0.088,0,0.176,0,0.246-0.012c0.08-0.008,0.145-0.021,0.191-0.028c0.057-0.016,0.088-0.031,0.111-0.047
			c0.023-0.018,0.023-0.037,0.016-0.057l-0.65-0.912c-0.018-0.02-0.049-0.039-0.096-0.056c-0.051-0.02-0.105-0.03-0.17-0.044
			c-0.07-0.016-0.15-0.024-0.238-0.031C115.26,77.179,115.172,77.173,115.076,77.173z"/>
	</g>
	<path fill="#4E8259" d="M88.754,89.911c0,0.813-0.621,1.475-1.393,1.475H55.209c-0.782,0-1.402-0.661-1.402-1.475l1.355-2.404
		c0.58-1.026,1.296-1.47,1.743-1.47h28.758c1.107,0,1.291,0.594,1.736,1.47L88.754,89.911z"/>
	<rect x="33.562" y="73.673" fill="#4E8259" width="76.728" height="1.362"/>
</g>
</svg>
