<?xml version="1.0" encoding="utf-8"?>
<!-- Generator: Adobe Illustrator 16.0.0, SVG Export Plug-In . SVG Version: 6.00 Build 0)  -->
<!DOCTYPE svg PUBLIC "-//W3C//DTD SVG 1.1//EN" "http://www.w3.org/Graphics/SVG/1.1/DTD/svg11.dtd">
<svg version="1.1" id="dog" xmlns="http://www.w3.org/2000/svg" xmlns:xlink="http://www.w3.org/1999/xlink" x="0px" y="0px"
	 width="142px" height="100px" viewBox="0 0 142 100" enable-background="new 0 0 142 100" xml:space="preserve">
<g>
	<path fill="#CC4E4E" d="M134.204,43.35c-3.441-2.761-10.493-1.748-14.29,0.012c-1.85,0.859-2.723,2.366-1.497,3.735
		c0.551,0.612,1.548,1.078,2.642,1.273c0.191,0.272,0.441,0.528,0.772,0.747c0.097,0.224,0.214,0.44,0.382,0.624
		c0.988,1.103,2.866,1.51,4.714,1.256c2.526-0.351,5.578-0.967,7.24-2.355C136.178,46.963,136.292,45.029,134.204,43.35z"/>
	<path fill="#CC4E4E" d="M38.835,60.406c0,0,2.532,28.136-0.396,31.391s11.724,3.255,11.724,1.34c0-1.914,0-30.245,0-30.245
		L38.835,60.406z"/>
	<path fill="#CC4E4E" d="M97.632,60.364c0,0,2.533,28.329-0.396,31.582c-2.931,3.255,11.724,3.065,11.724,1.15
		c0-1.916,0-30.243,0-30.243L97.632,60.364z"/>
	<path fill="#F9CC10" d="M129.926,60.978c-0.977-5.35-3.259-11.015-7.221-14.92c-4.768-4.7-10.411-5.841-16.967-6.025
		c-8.293-0.235-16.593-0.528-24.879-0.896v0.06c-7.311-1.375-12.341-3.551-12.619-7.12C67.229,19.109,56.507,4.128,49.771,2.023
		c-6.736-2.104-9.228-2.921-13.475,0.956C25.458,15.898,8.567,15.23,8.567,15.23S7.78,35.256,30.199,35.417
		c4.475,28.075,14.997,36.736,16.446,40.111c1.563,3.636,4.007,17.514,1.074,21.341c-2.928,3.829,12.206,3.735,12.595,0.289
		c0.394-3.445,1.952-12.188,2.54-15.888c-0.005-0.161,12.371-1.664,13.338-1.798c7.01-0.986,13.988-2.539,20.717-4.708
		c7.564-2.434,16.406-4.206,19.715,5.041c1.525,4.271,1.612,11.44-1.69,15.111c-2.929,3.256,13.277,2.871,13.67,0
		C128.994,92.042,130.797,65.766,129.926,60.978z"/>
	<path d="M32.74,13.107h-0.169c-2.447,0-2.447,3.72,0,3.72h0.169C35.187,16.827,35.187,13.107,32.74,13.107z"/>
	<path fill="#4E8259" d="M43.668,46.208c-2.325,0.255-8.817,0.138-12.66-0.067c-3.844-0.208-2.794-9.374-0.409-8.971
		c0.391,0.911,0.715,3.023,0.715,3.023c21.471,1.062,34.443-13.976,35.615-15.826c1.169-1.861,5.967,1.924,4.266,4.71
		C69.495,31.869,63.629,44.024,43.668,46.208z"/>
	<path fill="#CC4E4E" d="M41.25,5.575C38.886,0.636,52.051,0.253,53.851,7.11c1.799,6.862,4.049,25.036-5.343,28.218
		C39.337,37.283,43.611,10.515,41.25,5.575z"/>
	<path fill="#0D0000" d="M16.954,24.588c-0.708,1.005-1.639,1.787-2.741,2.296c-0.013-0.065-0.015-0.128-0.048-0.193
		c-0.937-2.014-2.264-4.31-2.544-6.536c4.032-1.21,3.598-8.001-1.307-8.001c-5.322,0-5.381,7.989-0.184,8.177
		c0.349,2.451,1.689,4.888,2.725,7.111c0.017,0.036,0.042,0.051,0.062,0.082c-0.346,0.501,0.044,1.371,0.796,1.145
		c1.899-0.574,3.428-1.731,4.552-3.328C18.822,24.548,17.505,23.805,16.954,24.588z"/>
</g>
</svg>
