<?xml version="1.0" encoding="utf-8"?>
<!-- Generator: Adobe Illustrator 16.0.0, SVG Export Plug-In . SVG Version: 6.00 Build 0)  -->
<!DOCTYPE svg PUBLIC "-//W3C//DTD SVG 1.1//EN" "http://www.w3.org/Graphics/SVG/1.1/DTD/svg11.dtd">
<svg version="1.1" id="camera" xmlns="http://www.w3.org/2000/svg" xmlns:xlink="http://www.w3.org/1999/xlink" x="0px" y="0px"
	 width="142px" height="100px" viewBox="0 0 142 100" enable-background="new 0 0 142 100" xml:space="preserve">
<g>
	<path fill="#CC4E4E" d="M113.722,14.625c-1.681-0.909-6.034-2.99-8.043-2.103c-0.389,0.174-0.716,0.471-0.999,0.841
		c-0.932-1.933-3.43-1.691-5.762-1.896c-0.393-0.037-0.752-0.066-1.102-0.093c0.591-1.938,1.164-4.533-1.144-5.347
		c-1.676-0.594-3.852-0.327-5.619-0.559c-1.923-0.25-3.959-1.019-5.882-1.028c-0.396-0.002-0.854,0.221-1.033,0.592
		c-0.457,0.945-0.561,2.063-0.658,3.142c-0.976-0.241-2.087-0.331-3.212-0.372c-0.475-2.321-0.766-7.519-3.808-7.509
		c-3.854,0.009-8.267,0.243-11.9,1.588c-0.496,0.184-0.883,0.595-0.877,1.151c0.009,1.088,0.122,2.123,0.286,3.163
		c-1.621,0.104-3.741,0.894-4.854,1.11c-0.554,0.108-1.4,0.164-2.226,0.291c0.137-1.074,0.131-2.182-0.497-2.767
		c-0.463-0.431-1.156-0.424-1.746-0.464c-1.394-0.097-2.797-0.111-4.192-0.164c-1.717-0.065-4.437-0.758-5.72,0.754
		c-1.386,1.628-1.004,5.236-0.941,7.25c-0.212,0.048-0.413,0.103-0.591,0.155c-0.361,0.111-0.777,0.43-0.834,0.836
		c-0.389,2.736-0.442,5.489-0.49,8.246c-0.518-2.085-1.027-4.175-1.58-6.249c-1.071-4.024-2.88-3.376-6.75-2.725
		c-3.753,0.632-6.827,0.37-6.323,4.614c0.669,5.637,2.012,11.184,3.706,16.596c-0.608,0.02-1.216,0.03-1.825,0.054
		c-0.034,0-0.055,0.016-0.085,0.02c-0.054,0.003-0.108,0.028-0.162,0.04c-0.099,0.024-0.202,0.039-0.284,0.083
		c-0.025,0.011-0.048,0.008-0.073,0.021c-2.201,1.151-1.857,2.463-1.885,4.772c-0.053,4.673,0.648,9.496,1.096,14.146
		c0.877,9.141,2.099,18.271,4.005,27.26c1.137,5.358,1.68,16.273,7.851,18.321c3.446,1.145,8.604,0.873,12.271,1.111
		c4.98,0.322,9.963,0.194,14.943,0.025c8.202-0.281,16.486,0.444,24.661-0.074c5.345-0.34,10.448-1.209,12.993-6.395
		c3.694-7.527,4.633-17.492,5.757-25.689c1.412-10.279,2.098-20.641,2.779-30.991c0.045-0.674-0.587-1.158-1.197-1.195
		c-0.401-0.027-0.802-0.047-1.204-0.073c1.499-4.78,2.876-9.595,4.065-14.463C115.261,18.11,116.317,16.027,113.722,14.625z"/>
	<path fill="#F9CC10" d="M92.752,34.161c-0.393-0.017-0.786-0.041-1.179-0.058c0.416-1.475,0.783-2.963,1.116-4.462
		C92.697,31.152,92.724,32.658,92.752,34.161z"/>
	<g>
		<path fill="#F9CC10" d="M102.596,14.816c0.617,0.886,0.15,4.288,0,6.081c-0.007,0.026-0.013,0.06-0.02,0.086
			c-0.046,0.189-0.049,0.363-0.018,0.522c-0.002,0.042-0.009,0.102-0.009,0.138c-0.027,4.333-0.057,8.666-0.085,12.999
			c-2.438-0.133-4.877-0.251-7.315-0.365c-0.073-3.933-0.051-7.862,0.074-11.792c0.063-2.036,0.008-4.164,0.274-6.183
			c0.37-2.829,0.585-2.702,3.409-2.443C100.395,13.996,102.03,14.004,102.596,14.816z"/>
		<path fill="#F9CC10" d="M92.249,8.007c0.939,0.097,2.946-0.142,3.402,0.643c0.433,0.744-0.104,1.942-0.344,2.702
			c-0.008,0.026,0,0.047-0.006,0.073c-1.242,0.271-1.906,1.125-2.106,3.394c-0.127,1.429-0.214,2.863-0.289,4.301
			c-0.015,0.036-0.041,0.058-0.054,0.094c-1.628,4.83-2.297,9.911-3.729,14.792c-1.687-0.071-3.376-0.13-5.063-0.19
			c1.329-7.038,2.287-14.615,2.538-21.741c0.043-1.231-0.299-2.095-0.882-2.715c0.009-0.035,0.028-0.062,0.033-0.098
			c0.089-0.679,0.073-1.595,0.231-2.356C88.039,7.085,90.209,7.797,92.249,8.007z"/>
		<path fill="#F9CC10" d="M83.437,17.465c-0.377,5.398-0.715,10.665-1.732,16c-0.017,0.095,0.002,0.175,0.004,0.264
			c-2.476-0.082-4.948-0.144-7.424-0.204c0.7-3.41,1.396-6.822,2.098-10.234c0.555-2.715,2.091-6.525,1.887-9.324
			c-0.074-0.991-0.516-1.608-1.158-2.002l0,0c0.084-2.144,4.539-2.149,5.915-1.095C84.685,12.146,83.558,15.73,83.437,17.465z"/>
		<path fill="#F9CC10" d="M66.551,21.804c0.251-1.605,0.469-3.215,0.679-4.829c0.104-0.791-0.011-2.769,0.454-3.379
			c0.358-0.469,0.229-0.062,1.146-0.254c0.983-0.209,3.909,0.152,4.889,0.475c2.685,0.885,1.484,3.323,1.025,5.564
			c-0.95,4.639-1.899,9.278-2.849,13.918c-0.015,0.06,0.003,0.108-0.002,0.167c-2.535-0.055-5.068-0.091-7.604-0.121
			C65.159,29.521,65.944,25.682,66.551,21.804z"/>
		<path fill="#F9CC10" d="M76.38,2.67c0.743,1.519,1.101,3.386,1.429,5.066c-0.561-0.02-1.094-0.054-1.584-0.115
			C75.756,7.564,75.144,8.031,75.07,8.5c-0.201,1.275-0.271,1.789-0.324,2.839c-1.265-0.101-2.627-0.014-3.658-0.117
			c-1.399-0.138-2.589-0.39-3.545-0.273C67.37,9.716,67.176,8.34,66.528,7.37c0.003-0.106,0.019-0.207-0.009-0.326
			c-0.235-1.049-0.348-2.081-0.403-3.135c2.092-0.624,4.146-0.784,6.366-0.882C73.74,2.971,75.091,2.692,76.38,2.67z"/>
		<path fill="#F9CC10" d="M65.367,12.441c0.021,0.118,0.073,0.202,0.117,0.295c-0.091,0.249-0.177,0.518-0.248,0.834
			c-1.438,6.416-1.862,13.088-3.34,19.542c-0.017,0.073,0,0.133-0.006,0.202c-0.89-0.009-1.777-0.019-2.666-0.025
			c-0.505-5.81-1.241-11.581-2.164-17.342c-0.176-1.101-1.106-4.195-0.766-5.04c0.43-1.055,1.349-0.881,2.582-1.125
			C62.59,9.052,64.612,8.108,65.367,12.441z"/>
		<path fill="#F9CC10" d="M46.359,7.564c0.163-1.306,0.486-1.031,1.537-1.065c0.842-0.03,1.706,0.064,2.546,0.097
			c1.292,0.049,2.69,0.234,3.987,0.167c-0.003,0.06-0.007,0.119-0.012,0.179c-0.192,0.627-0.109,1.472-0.199,2.127
			c0,0.002,0,0.003,0,0.005c-0.797,1.633-0.015,4.15,0.235,5.666c1.011,6.159,1.839,12.332,2.379,18.55
			c-1.506-0.004-3.01-0.004-4.517,0c0.177-3.425,0.309-6.849,0.349-10.279c0.03-2.624,0.806-6.667-0.229-9.048
			c-0.803-1.844-3.725-2.26-6.258-2.096C46.157,10.429,46.183,8.99,46.359,7.564z"/>
		<path fill="#F9CC10" d="M43.928,28.71c0.295-2.781,0.296-5.56,0.342-8.354c0.044-2.75-0.53-6.945,3.5-5.804
			c2.194,0.621,2.196,1.271,2.512,3.521c0.223,1.579,0.011,3.331-0.009,4.937c-0.041,3.431-0.172,6.854-0.349,10.279
			c-1.704,0.013-3.411,0.047-5.115,0.07c-0.346-1.395-0.684-2.791-1.024-4.189C43.855,29.037,43.91,28.887,43.928,28.71z"/>
		<path fill="#F9CC10" d="M30.598,22.979c-0.271-1.358-0.849-3.264-0.815-4.655c0.077-3.147,1.749-3.46,4.392-3.547
			c3.716-0.122,3.876,1.339,4.589,4.2c0.391,1.575,0.784,3.149,1.175,4.723c0.802,3.23,1.607,6.461,2.412,9.693
			c-2.986,0.052-5.969,0.125-8.955,0.215C32.284,30.112,31.319,26.581,30.598,22.979z"/>
		<path fill="#F9CC10" d="M110.54,26.829c-0.761,2.73-1.58,5.441-2.435,8.143c-1.083-0.064-2.166-0.127-3.247-0.192
			c0.021-3.56,0.045-7.123,0.068-10.685c0.007-1.111,0.075-2.302,0.141-3.504c0.261-1.741,0.551-4.439,1.37-5.237
			c0.853-0.828,2.63,0.05,3.542,0.492c1.633,0.791,2.53,1.298,2.523,3.409C112.494,21.615,111.169,24.562,110.54,26.829z"/>
	</g>
	
		<ellipse fill="#4E8259" stroke="#4E8259" stroke-width="3" stroke-miterlimit="10" cx="70.085" cy="73.031" rx="22.058" ry="12.231"/>
</g>
</svg>
