<?xml version="1.0" encoding="utf-8"?>
<!-- Generator: Adobe Illustrator 16.0.0, SVG Export Plug-In . SVG Version: 6.00 Build 0)  -->
<!DOCTYPE svg PUBLIC "-//W3C//DTD SVG 1.1//EN" "http://www.w3.org/Graphics/SVG/1.1/DTD/svg11.dtd">
<svg version="1.1" id="Layer_1" xmlns="http://www.w3.org/2000/svg" xmlns:xlink="http://www.w3.org/1999/xlink" x="0px" y="0px"
	 width="210px" height="45px" viewBox="0 0 210 45" enable-background="new 0 0 210 45" xml:space="preserve">
<g enable-background="new    ">
	<path fill="#CC4E4E" d="M1.333,9.275L6.19,8.656L11,7.941c-0.667,5.524-1.08,10.683-1.238,15.477
		c-0.095,4.73,0.031,9.095,0.381,13.095l-4.286,1.048l-4.476,0.762L1.333,9.275z"/>
	<path fill="#CC4E4E" d="M13.238,8.513l9.571-1.428c0.19,0.857,0.46,2.095,0.81,3.714c0.92,3.683,1.905,6.937,2.953,9.762
		c0.571,1.619,1.158,2.904,1.762,3.857v-16l9.619-1.333c-1.302,11.047-1.571,20.571-0.81,28.571l-8.714,1.905
		c-0.032-0.063-0.381-0.571-1.047-1.523l-4.429-6.096c-0.826-0.952-1.302-1.603-1.429-1.952c0,3.333,0.126,6.523,0.381,9.571
		l-8.619,1.81L13.238,8.513z"/>
	<path fill="#CC4E4E" d="M63.523,15.37c-4.032,0.222-6.905,0.397-8.619,0.523c-0.35,3.334,0.079,10.588,1.286,21.762l-10.095,1.857
		l-0.047-22.952c-0.572,0.032-1.762,0.175-3.572,0.429c-1.683,0.159-3.032,0.285-4.047,0.381L39,9.417l22.953-1.905L63.523,15.37z"
		/>
	<path fill="#CC4E4E" d="M78.571,15.37c-1.747,0.222-3.381,0.397-4.905,0.523c-0.159,0.953-0.254,1.651-0.286,2.096l-0.095,2.048
		l4-0.572l3.809-0.571l0.333,2.81l0.381,2.905c-2.476,0.35-4.111,0.588-4.905,0.714c-1.333,0.223-2.54,0.413-3.619,0.571
		l-0.096,3.857l5.238-0.667l5.238-0.714l0.523,3.904l0.524,3.763c-2.667,0.159-5.699,0.46-9.095,0.904
		c-3.397,0.54-7.127,1.19-11.19,1.952c-0.032-1.65-0.064-4.095-0.095-7.333l-0.143-7.429c-0.064-6.508-0.095-11.429-0.095-14.762
		l9.238-0.953l9.333-1.047l0.571,3.81l0.619,3.857C82.015,15.132,80.253,15.244,78.571,15.37z"/>
	<path fill="#CC4E4E" d="M100,7.275c5.206,0,8.206,1.81,9,5.428c0.443,4.35-1.762,7.905-6.62,10.667
		c0.73,1.017,3.524,4.159,8.381,9.429c-2,1.588-4.557,3.571-7.667,5.952l-8.952-11.619c-0.032,3.714,0.079,7.096,0.333,10.143
		l-8.524,1.905c0.54-14.793,0.492-24.762-0.143-29.905C91.428,7.941,96.158,7.275,100,7.275z M94.238,17.561l-0.095,2.952
		c1.269-0.507,2.428-1.126,3.476-1.857c1.841-1.237,2.65-2.333,2.428-3.285c-0.127-0.698-0.762-1.079-1.904-1.143
		c-0.857-0.031-2.08,0.127-3.667,0.476C94.316,15.688,94.238,16.64,94.238,17.561z"/>
	<path fill="#CC4E4E" d="M125.38,15.37c-1.746,0.222-3.381,0.397-4.904,0.523c-0.159,0.953-0.255,1.651-0.286,2.096l-0.095,2.048
		l4-0.572l3.81-0.571l0.333,2.81l0.381,2.905c-2.476,0.35-4.111,0.588-4.904,0.714c-1.334,0.223-2.54,0.413-3.619,0.571
		l-0.096,3.857l5.238-0.667l5.238-0.714l0.523,3.904l0.524,3.763c-2.667,0.159-5.699,0.46-9.096,0.904
		c-3.397,0.54-7.127,1.19-11.19,1.952c-0.032-1.65-0.063-4.095-0.095-7.333l-0.144-7.429c-0.063-6.508-0.095-11.429-0.095-14.762
		l9.238-0.953l9.333-1.047l0.571,3.81l0.619,3.857C128.824,15.132,127.062,15.244,125.38,15.37z"/>
	<path fill="#CC4E4E" d="M155.855,13.18c0.19,0.952,0.381,2.016,0.571,3.19c-0.889,0.317-2.254,0.73-4.095,1.238l-4.143,1.19
		c-0.255-1.238-0.89-1.857-1.905-1.857c-1.429,0-2.73,0.54-3.904,1.619c-0.731,0.889-0.969,1.73-0.715,2.523
		c0.286,0.477,1.127,0.715,2.524,0.715c0.697,0,1.618-0.079,2.762-0.238c1.619-0.222,3.063-0.333,4.333-0.333
		c3.206,0,5.286,0.794,6.238,2.381c0.285,0.54,0.492,1.047,0.619,1.523c0.444,1.778-0.048,3.683-1.477,5.714
		c-1.746,2.667-4.556,4.922-8.429,6.763c-1.969,0.921-4.047,1.381-6.237,1.381c-1.969,0-4-0.381-6.096-1.144
		c0.571-1.649,1.508-4.11,2.81-7.381c1.396,0.667,2.793,1,4.19,1c0.571,0,1.158-0.078,1.762-0.237
		c1.174-0.222,2.222-0.54,3.143-0.953c1.365-0.571,1.984-1.174,1.857-1.81c-0.159-0.729-1.017-1.095-2.571-1.095
		c-1.143,0-2.667,0.143-4.571,0.429c-1.937,0.381-3.461,0.571-4.571,0.571c-1.397,0-2.524-0.206-3.381-0.619
		c-1.684-0.698-2.556-1.81-2.619-3.333c-0.254-3.016,1.571-6.508,5.476-10.477c4.063-4.159,7.953-6.349,11.667-6.571
		C152.617,7.275,154.871,9.211,155.855,13.18z"/>
	<path fill="#CC4E4E" d="M183.047,15.37c-4.032,0.222-6.905,0.397-8.619,0.523c-0.35,3.334,0.079,10.588,1.286,21.762l-10.096,1.857
		l-0.048-22.952c-0.571,0.032-1.762,0.175-3.571,0.429c-1.683,0.159-3.032,0.285-4.048,0.381l0.572-7.953l22.952-1.905
		L183.047,15.37z"/>
	<path fill="#CC4E4E" d="M206.713,13.18c0.19,0.952,0.381,2.016,0.571,3.19c-0.889,0.317-2.254,0.73-4.095,1.238l-4.143,1.19
		c-0.255-1.238-0.89-1.857-1.905-1.857c-1.429,0-2.73,0.54-3.904,1.619c-0.731,0.889-0.969,1.73-0.715,2.523
		c0.286,0.477,1.127,0.715,2.524,0.715c0.697,0,1.618-0.079,2.762-0.238c1.619-0.222,3.063-0.333,4.333-0.333
		c3.206,0,5.286,0.794,6.238,2.381c0.285,0.54,0.492,1.047,0.619,1.523c0.444,1.778-0.048,3.683-1.477,5.714
		c-1.746,2.667-4.556,4.922-8.429,6.763c-1.969,0.921-4.047,1.381-6.237,1.381c-1.969,0-4-0.381-6.096-1.144
		c0.571-1.649,1.508-4.11,2.81-7.381c1.396,0.667,2.793,1,4.19,1c0.571,0,1.158-0.078,1.762-0.237
		c1.174-0.222,2.222-0.54,3.143-0.953c1.365-0.571,1.984-1.174,1.857-1.81c-0.159-0.729-1.017-1.095-2.571-1.095
		c-1.143,0-2.667,0.143-4.571,0.429c-1.937,0.381-3.461,0.571-4.571,0.571c-1.397,0-2.524-0.206-3.381-0.619
		c-1.684-0.698-2.556-1.81-2.619-3.333c-0.254-3.016,1.571-6.508,5.476-10.477c4.063-4.159,7.953-6.349,11.667-6.571
		C203.475,7.275,205.729,9.211,206.713,13.18z"/>
</g>
</svg>
