<?xml version="1.0" encoding="utf-8"?>
<!-- Generator: Adobe Illustrator 16.0.0, SVG Export Plug-In . SVG Version: 6.00 Build 0)  -->
<!DOCTYPE svg PUBLIC "-//W3C//DTD SVG 1.1//EN" "http://www.w3.org/Graphics/SVG/1.1/DTD/svg11.dtd">
<svg version="1.1" id="Layer_1" xmlns="http://www.w3.org/2000/svg" xmlns:xlink="http://www.w3.org/1999/xlink" x="0px" y="0px"
	 width="430px" height="45px" viewBox="0 0 430 45" enable-background="new 0 0 430 45" xml:space="preserve">
<g enable-background="new    ">
	<path fill="#CC4E4E" d="M5.383,9.333L14.765,8c-0.794,7.651-1.159,14.666-1.095,21.048l9.857-1.144l1,7.715
		c-5.143,0.285-11.524,1.237-19.143,2.856V9.333z"/>
	<path fill="#CC4E4E" d="M39.574,15.381c-1.747,0.222-3.381,0.397-4.905,0.523c-0.159,0.953-0.254,1.651-0.286,2.096l-0.095,2.048
		l4-0.572l3.809-0.571l0.333,2.81l0.381,2.905c-2.476,0.35-4.111,0.588-4.905,0.714c-1.333,0.223-2.54,0.413-3.619,0.571
		l-0.096,3.857l5.238-0.667l5.238-0.714l0.523,3.904l0.524,3.763c-2.667,0.159-5.699,0.46-9.095,0.904
		c-3.397,0.54-7.127,1.19-11.19,1.952c-0.032-1.65-0.064-4.095-0.095-7.333l-0.143-7.429c-0.064-6.508-0.095-11.429-0.095-14.762
		l9.238-0.953l9.333-1.047l0.571,3.81l0.619,3.857C43.018,15.143,41.256,15.254,39.574,15.381z"/>
	<path fill="#CC4E4E" d="M45.431,37.19c3.269-9.46,5.746-18.873,7.428-28.238L65.24,7.333c1.492,8.476,4.111,18.223,7.857,29.238
		l-9.381,1.952l-1.333-5.19l-6.143,0.571l-1.048,5.238L45.431,37.19z M61.192,27.81l-2.333-10.953l-1.905,11L61.192,27.81z"/>
	<path fill="#CC4E4E" d="M87.335,7.286c5.206,0,8.206,1.81,9,5.428c0.444,4.35-1.762,7.905-6.619,10.667
		c0.73,1.017,3.524,4.159,8.381,9.429c-2,1.588-4.556,3.571-7.667,5.952l-8.952-11.619c-0.032,3.714,0.079,7.096,0.333,10.143
		l-8.524,1.905c0.54-14.793,0.492-24.762-0.143-29.905C78.764,7.952,83.494,7.286,87.335,7.286z M81.574,17.571l-0.095,2.952
		c1.269-0.507,2.428-1.126,3.476-1.857c1.841-1.237,2.65-2.333,2.428-3.285c-0.127-0.698-0.762-1.079-1.904-1.143
		c-0.857-0.031-2.08,0.127-3.667,0.476C81.652,15.698,81.574,16.651,81.574,17.571z"/>
	<path fill="#CC4E4E" d="M98.478,8.523l9.571-1.428c0.19,0.857,0.46,2.095,0.81,3.714c0.92,3.683,1.905,6.937,2.953,9.762
		c0.571,1.619,1.158,2.904,1.762,3.857v-16l9.619-1.333c-1.302,11.047-1.571,20.571-0.81,28.571l-8.714,1.905
		c-0.032-0.063-0.381-0.571-1.047-1.523l-4.429-6.096C107.366,29,106.89,28.35,106.764,28c0,3.333,0.126,6.523,0.381,9.571
		l-8.619,1.81L98.478,8.523z"/>
	<path fill="#CC4E4E" d="M125.287,9.286l4.857-0.619l4.81-0.714c-0.667,5.524-1.08,10.683-1.238,15.477
		c-0.095,4.73,0.031,9.095,0.381,13.095l-4.285,1.048l-4.477,0.762L125.287,9.286z"/>
	<path fill="#CC4E4E" d="M137.192,8.523l9.571-1.428c0.19,0.857,0.46,2.095,0.81,3.714c0.92,3.683,1.904,6.937,2.952,9.762
		c0.571,1.619,1.158,2.904,1.762,3.857v-16l9.619-1.333c-1.302,11.047-1.571,20.571-0.81,28.571l-8.714,1.905
		c-0.032-0.063-0.382-0.571-1.048-1.523l-4.429-6.096C146.08,29,145.604,28.35,145.478,28c0,3.333,0.127,6.523,0.381,9.571
		l-8.619,1.81L137.192,8.523z"/>
	<path fill="#CC4E4E" d="M169.906,38.048c-1.619-0.825-3.048-1.969-4.286-3.429c-0.571-0.825-1.111-1.667-1.619-2.524
		c-0.317-0.92-0.635-1.825-0.952-2.714c-0.19-0.983-0.302-1.968-0.333-2.952c-0.032-1.048,0-2.079,0.095-3.096
		c0.222-1.873,0.73-3.667,1.524-5.381c0.793-1.746,1.841-3.412,3.143-5c1.587-1.873,3.349-3.27,5.286-4.19
		c1.968-0.953,4.126-1.429,6.476-1.429c2.031,0,3.857,0.413,5.477,1.238c1.714,0.762,3.19,1.952,4.429,3.571l-2.572,2.429
		l-2.571,2.523c-1.778-1.84-3.778-2.428-6-1.762c-2,0.604-3.746,2.017-5.237,4.238c-1.747,2.54-2.334,5.175-1.763,7.904
		c0.222,1.429,0.81,2.557,1.763,3.381c1.143,0.953,2.682,1.366,4.618,1.238c1.65-0.062,3.048-0.571,4.19-1.523
		c1.238-0.857,2.079-2.016,2.524-3.477c-1.238,0.159-2.636,0.381-4.19,0.667c-1.111,0.159-2.461,0.429-4.048,0.81l0.143-3
		l0.286-3.048l7.857-1.238l7.856-1.095c0.286,0.857,0.396,1.81,0.334,2.857c0,0.984-0.128,2.063-0.381,3.237
		c-0.286,1.017-0.651,2-1.096,2.953c-0.413,0.889-0.904,1.746-1.477,2.571c-1.587,2.476-3.556,4.302-5.904,5.476
		c-2.317,1.238-5.017,1.857-8.096,1.857C173.351,39.143,171.525,38.778,169.906,38.048z"/>
	<path fill="#CC4E4E" d="M218.238,15.381c-1.746,0.222-3.381,0.397-4.904,0.523c-0.159,0.953-0.255,1.651-0.286,2.096l-0.095,2.048
		l4-0.572l3.81-0.571l0.333,2.81l0.381,2.905c-2.476,0.35-4.111,0.588-4.904,0.714c-1.334,0.223-2.54,0.413-3.619,0.571
		l-0.096,3.857l5.238-0.667l5.238-0.714l0.523,3.904l0.524,3.763c-2.667,0.159-5.699,0.46-9.096,0.904
		c-3.397,0.54-7.127,1.19-11.19,1.952c-0.032-1.65-0.063-4.095-0.095-7.333l-0.144-7.429c-0.063-6.508-0.095-11.429-0.095-14.762
		l9.238-0.953l9.333-1.047l0.571,3.81l0.619,3.857C221.683,15.143,219.921,15.254,218.238,15.381z"/>
	<path fill="#CC4E4E" d="M233.334,6.571l2.048,4.095c0.667,1.207,1.333,2.556,2,4.047l1.904-3.667
		c0.635-1.238,1.238-2.412,1.81-3.524l10.144,0.619L241.953,23c2.508,4.508,5,8.54,7.477,12.095l-7,4.477l-5.381-9.048L231.62,39
		l-7.857-1.952c2.983-4.159,5.952-8.778,8.904-13.857l-7.523-12.477L233.334,6.571z"/>
	<path fill="#CC4E4E" d="M251.19,24.19c0.127-8.477-0.032-13.524-0.477-15.143c5.46-1.174,9.857-1.667,13.19-1.476
		c3.238,0.159,5.73,0.969,7.477,2.429c1.777,1.523,2.683,3.746,2.715,6.667c0.031,2.381-0.572,4.493-1.81,6.333
		c-1.048,1.556-2.541,2.873-4.477,3.952c-2.255,1.333-5,2.207-8.238,2.619c-0.095,2,0.048,4.842,0.429,8.523l-9.143,0.857
		C251.016,36.223,251.127,31.302,251.19,24.19z M259.381,22.333c2.031-0.031,3.715-0.603,5.048-1.714
		c0.92-0.825,1.476-1.841,1.667-3.048c0.253-1.619-0.334-2.698-1.763-3.238c-1.302-0.381-3.031-0.286-5.19,0.286L259.381,22.333z"/>
	<path fill="#CC4E4E" d="M289.476,15.381c-1.746,0.222-3.381,0.397-4.904,0.523c-0.159,0.953-0.255,1.651-0.286,2.096l-0.095,2.048
		l4-0.572l3.81-0.571l0.333,2.81l0.381,2.905c-2.476,0.35-4.111,0.588-4.904,0.714c-1.334,0.223-2.54,0.413-3.619,0.571
		l-0.096,3.857l5.238-0.667l5.238-0.714l0.523,3.904l0.524,3.763c-2.667,0.159-5.699,0.46-9.096,0.904
		c-3.397,0.54-7.127,1.19-11.19,1.952c-0.032-1.65-0.063-4.095-0.095-7.333l-0.144-7.429C275.031,17.635,275,12.714,275,9.381
		l9.238-0.953l9.333-1.047l0.571,3.81l0.619,3.857C292.92,15.143,291.158,15.254,289.476,15.381z"/>
	<path fill="#CC4E4E" d="M310.904,7.286c5.207,0,8.207,1.81,9,5.428c0.444,4.35-1.762,7.905-6.618,10.667
		c0.729,1.017,3.523,4.159,8.381,9.429c-2,1.588-4.556,3.571-7.667,5.952l-8.952-11.619c-0.032,3.714,0.079,7.096,0.333,10.143
		l-8.523,1.905c0.539-14.793,0.491-24.762-0.144-29.905C302.333,7.952,307.063,7.286,310.904,7.286z M305.143,17.571l-0.095,2.952
		c1.27-0.507,2.429-1.126,3.476-1.857c1.841-1.237,2.65-2.333,2.429-3.285c-0.127-0.698-0.762-1.079-1.904-1.143
		c-0.857-0.031-2.08,0.127-3.667,0.476C305.222,15.698,305.143,16.651,305.143,17.571z"/>
	<path fill="#CC4E4E" d="M322.285,9.286l4.857-0.619l4.81-0.714c-0.667,5.524-1.08,10.683-1.238,15.477
		c-0.095,4.73,0.031,9.095,0.381,13.095l-4.285,1.048l-4.477,0.762L322.285,9.286z"/>
	<path fill="#CC4E4E" d="M348.428,15.381c-1.746,0.222-3.381,0.397-4.904,0.523c-0.159,0.953-0.255,1.651-0.286,2.096l-0.095,2.048
		l4-0.572l3.81-0.571l0.333,2.81l0.381,2.905c-2.476,0.35-4.111,0.588-4.904,0.714c-1.334,0.223-2.54,0.413-3.619,0.571
		l-0.096,3.857l5.238-0.667l5.238-0.714l0.523,3.904l0.524,3.763c-2.667,0.159-5.699,0.46-9.096,0.904
		c-3.397,0.54-7.127,1.19-11.19,1.952c-0.032-1.65-0.063-4.095-0.095-7.333l-0.144-7.429c-0.063-6.508-0.095-11.429-0.095-14.762
		l9.238-0.953l9.333-1.047l0.571,3.81l0.619,3.857C351.872,15.143,350.11,15.254,348.428,15.381z"/>
	<path fill="#CC4E4E" d="M356.047,8.523l9.571-1.428c0.19,0.857,0.46,2.095,0.81,3.714c0.92,3.683,1.904,6.937,2.952,9.762
		c0.571,1.619,1.158,2.904,1.762,3.857v-16l9.619-1.333c-1.302,11.047-1.571,20.571-0.81,28.571l-8.714,1.905
		c-0.032-0.063-0.382-0.571-1.048-1.523l-4.429-6.096C364.935,29,364.459,28.35,364.332,28c0,3.333,0.127,6.523,0.381,9.571
		l-8.619,1.81L356.047,8.523z"/>
	<path fill="#CC4E4E" d="M383.57,31.381c-1.429-2.667-2.127-5.508-2.096-8.524c0.063-2.824,0.715-5.443,1.952-7.856
		c1.207-2.54,2.794-4.477,4.763-5.81c2.222-1.429,4.65-1.984,7.285-1.667c2.857,0.318,5.762,1.747,8.715,4.286l-2.286,2.762
		l-2.429,2.857c-3.048-1.778-5.444-1.889-7.19-0.334c-1.588,1.303-2.333,3.334-2.238,6.096c0.063,2.762,0.921,4.794,2.572,6.095
		c1.809,1.493,4.126,1.303,6.952-0.571l4.523,5.096c-2.381,2.825-4.984,4.476-7.81,4.952c-2.444,0.412-4.904-0.111-7.381-1.571
		C386.713,35.889,384.935,33.952,383.57,31.381z"/>
	<path fill="#CC4E4E" d="M418.95,15.381c-1.746,0.222-3.381,0.397-4.904,0.523c-0.159,0.953-0.255,1.651-0.286,2.096l-0.095,2.048
		l4-0.572l3.81-0.571l0.333,2.81l0.381,2.905c-2.476,0.35-4.111,0.588-4.904,0.714c-1.334,0.223-2.54,0.413-3.619,0.571
		l-0.096,3.857l5.238-0.667l5.238-0.714l0.523,3.904l0.524,3.763c-2.667,0.159-5.699,0.46-9.096,0.904
		c-3.397,0.54-7.127,1.19-11.19,1.952c-0.032-1.65-0.063-4.095-0.095-7.333l-0.144-7.429c-0.063-6.508-0.095-11.429-0.095-14.762
		l9.238-0.953l9.333-1.047l0.571,3.81l0.619,3.857C422.395,15.143,420.633,15.254,418.95,15.381z"/>
</g>
</svg>
