<?xml version="1.0" encoding="utf-8"?>
<!-- Generator: Adobe Illustrator 16.0.0, SVG Export Plug-In . SVG Version: 6.00 Build 0)  -->
<!DOCTYPE svg PUBLIC "-//W3C//DTD SVG 1.1//EN" "http://www.w3.org/Graphics/SVG/1.1/DTD/svg11.dtd">
<svg version="1.1" id="logo" xmlns="http://www.w3.org/2000/svg" xmlns:xlink="http://www.w3.org/1999/xlink" x="0px" y="0px"
	 width="113px" height="132px" viewBox="0 0 113 132" enable-background="new 0 0 113 132" xml:space="preserve">
<g id="logo_1_">
	<g id="top">
		<path fill="#F7BF14" d="M56.997,0.248c-23.562,0-42.73,19.014-42.73,42.388c0,12.002,5.016,25.161,13.416,35.2l0.353,0.469
			c1.096,1.408,10.703,14.004,10.703,22.793c0,1.619,1.111,2.975,2.606,3.35v0.105h6.502h8.051h1.104V0.248
			C57.001,0.248,56.999,0.248,56.997,0.248z"/>
		<path fill="#F7BF14" d="M55.999,0.248v104.305h1.732H68.11h1.385v-0.227l2.818-0.049c1.268-0.539,2.092-1.787,2.092-3.176
			c0-7.773,7.727-19.086,10.701-22.791c0.148-0.188,0.262-0.371,0.297-0.457l0.279-0.453c8.186-10.045,13.051-23.008,13.051-34.763
			C98.733,19.264,79.565,0.249,55.999,0.248z"/>
	</g>
	<g id="bottom">
		<path fill="#CC4E4E" d="M59.106,131.752c0.865,0,1.688-0.375,2.246-1.029l3.122-3.627h5.776c1.643,0,2.98-1.352,2.98-3.006
			v-15.734l-0.401,0.111c-0.694,0.168-1.286,0.25-1.853,0.25H55.999v23.035H59.106z"/>
		<path fill="#CC4E4E" d="M40.181,108.414l-0.41-0.113v15.785c0,1.652,1.338,3.01,2.988,3.01h5.763l3.116,3.613
			c0.57,0.668,1.395,1.043,2.26,1.043h3.104v-23.035H42.173C41.572,108.717,40.938,108.627,40.181,108.414z"/>
	</g>
</g>
</svg>
