<?xml version="1.0" encoding="utf-8"?>
<!-- Generator: Adobe Illustrator 16.0.0, SVG Export Plug-In . SVG Version: 6.00 Build 0)  -->
<!DOCTYPE svg PUBLIC "-//W3C//DTD SVG 1.1//EN" "http://www.w3.org/Graphics/SVG/1.1/DTD/svg11.dtd">
<svg version="1.1" id="Layer_1" xmlns="http://www.w3.org/2000/svg" xmlns:xlink="http://www.w3.org/1999/xlink" x="0px" y="0px"
	 width="135px" height="45px" viewBox="0 0 135 45" enable-background="new 0 0 135 45" xml:space="preserve">
<g enable-background="new    ">
	<path fill="#CC4E4E" d="M26.517,13.018c0.191,0.952,0.381,2.016,0.572,3.19c-0.889,0.317-2.254,0.73-4.095,1.238l-4.143,1.19
		c-0.254-1.238-0.889-1.857-1.905-1.857c-1.429,0-2.73,0.54-3.905,1.619c-0.73,0.889-0.969,1.73-0.714,2.523
		c0.286,0.477,1.126,0.715,2.524,0.715c0.698,0,1.619-0.079,2.762-0.238c1.619-0.222,3.063-0.333,4.333-0.333
		c3.206,0,5.286,0.794,6.238,2.381c0.286,0.54,0.492,1.047,0.619,1.523c0.444,1.778-0.048,3.683-1.477,5.714
		c-1.746,2.667-4.556,4.922-8.428,6.763c-1.969,0.921-4.048,1.381-6.238,1.381c-1.969,0-4-0.381-6.095-1.144
		c0.571-1.649,1.507-4.11,2.81-7.381c1.396,0.667,2.793,1,4.19,1c0.571,0,1.159-0.078,1.762-0.237
		c1.174-0.222,2.222-0.54,3.143-0.953c1.365-0.571,1.983-1.174,1.857-1.81c-0.159-0.729-1.016-1.095-2.571-1.095
		c-1.143,0-2.667,0.143-4.571,0.429c-1.937,0.381-3.46,0.571-4.571,0.571c-1.397,0-2.524-0.206-3.381-0.619
		c-1.683-0.698-2.556-1.81-2.619-3.333c-0.254-3.016,1.571-6.508,5.476-10.477c4.063-4.159,7.952-6.349,11.667-6.571
		C23.279,7.113,25.532,9.049,26.517,13.018z"/>
	<path fill="#CC4E4E" d="M29.708,9.065l9.429-1.333c-0.318,2.413-0.493,4.35-0.524,5.81c2.92-2.031,5.507-4.047,7.762-6.047
		l8.143,3.333l-9.667,7.19l10.524,16.762l-9.428,3.952l-7.905-15.476c-0.064,4.444,0.047,8.794,0.333,13.047l-8.571,1.81
		L29.708,9.065z"/>
	<path fill="#CC4E4E" d="M55.802,9.113l4.857-0.619l4.81-0.714c-0.667,5.524-1.08,10.683-1.238,15.477
		c-0.095,4.73,0.031,9.095,0.381,13.095l-4.286,1.048L55.85,38.16L55.802,9.113z"/>
	<path fill="#CC4E4E" d="M67.468,9.16l9.381-1.333c-0.794,7.651-1.159,14.666-1.096,21.048l9.857-1.144l1,7.715
		c-5.143,0.285-11.523,1.237-19.143,2.856V9.16z"/>
	<path fill="#CC4E4E" d="M87.183,9.16l9.382-1.333c-0.795,7.651-1.16,14.666-1.096,21.048l9.857-1.144l1,7.715
		c-5.144,0.285-11.524,1.237-19.144,2.856V9.16z"/>
	<path fill="#CC4E4E" d="M129.992,13.018c0.189,0.952,0.381,2.016,0.57,3.19c-0.889,0.317-2.254,0.73-4.094,1.238l-4.143,1.19
		c-0.256-1.238-0.891-1.857-1.906-1.857c-1.428,0-2.73,0.54-3.904,1.619c-0.73,0.889-0.969,1.73-0.715,2.523
		c0.287,0.477,1.127,0.715,2.525,0.715c0.697,0,1.617-0.079,2.762-0.238c1.619-0.222,3.062-0.333,4.332-0.333
		c3.207,0,5.287,0.794,6.238,2.381c0.285,0.54,0.492,1.047,0.619,1.523c0.445,1.778-0.047,3.683-1.477,5.714
		c-1.746,2.667-4.555,4.922-8.428,6.763c-1.969,0.921-4.047,1.381-6.238,1.381c-1.969,0-4-0.381-6.096-1.144
		c0.572-1.649,1.508-4.11,2.811-7.381c1.396,0.667,2.793,1,4.189,1c0.572,0,1.158-0.078,1.762-0.237
		c1.174-0.222,2.223-0.54,3.143-0.953c1.365-0.571,1.984-1.174,1.857-1.81c-0.158-0.729-1.016-1.095-2.57-1.095
		c-1.143,0-2.668,0.143-4.572,0.429c-1.936,0.381-3.461,0.571-4.57,0.571c-1.398,0-2.524-0.206-3.382-0.619
		c-1.683-0.698-2.556-1.81-2.618-3.333c-0.254-3.016,1.57-6.508,5.476-10.477c4.063-4.159,7.952-6.349,11.667-6.571
		C126.754,7.113,129.008,9.049,129.992,13.018z"/>
</g>
</svg>
