<?xml version="1.0" encoding="utf-8"?>
<!-- Generator: Adobe Illustrator 16.0.0, SVG Export Plug-In . SVG Version: 6.00 Build 0)  -->
<!DOCTYPE svg PUBLIC "-//W3C//DTD SVG 1.1//EN" "http://www.w3.org/Graphics/SVG/1.1/DTD/svg11.dtd">
<svg version="1.1" id="time" xmlns="http://www.w3.org/2000/svg" xmlns:xlink="http://www.w3.org/1999/xlink" x="0px" y="0px"
	 width="1165px" height="55px" viewBox="0 0 1165 55" enable-background="new 0 0 1165 55" xml:space="preserve">
<path id="green_x5F_line" fill="#4E8259" d="M1165.5,28c0,6.627-5.378,12-12.01,12H11.51C4.877,40-0.5,34.627-0.5,28l0,0
	c0-6.627,5.377-12,12.01-12h1141.98C1160.122,16,1165.5,21.373,1165.5,28L1165.5,28z"/>
<g id="red_x5F_line">
	<path fill="#CC4E4E" d="M142,48.79c0,3.43-3.134,6.21-7,6.21l0,0c-3.866,0-7-2.78-7-6.21V6.21c0-3.43,3.134-6.21,7-6.21l0,0
		c3.866,0,7,2.78,7,6.21V48.79z"/>
	<path fill="#CC4E4E" d="M486,48.79c0,3.43-3.134,6.21-7,6.21l0,0c-3.866,0-7-2.78-7-6.21V6.21c0-3.43,3.134-6.21,7-6.21l0,0
		c3.866,0,7,2.78,7,6.21V48.79z"/>
	<path fill="#CC4E4E" d="M854,48.79c0,3.43-3.134,6.21-7,6.21l0,0c-3.866,0-7-2.78-7-6.21V6.21c0-3.43,3.134-6.21,7-6.21l0,0
		c3.866,0,7,2.78,7,6.21V48.79z"/>
	<path fill="#CC4E4E" d="M656,48.79c0,3.43-3.134,6.21-7,6.21l0,0c-3.866,0-7-2.78-7-6.21V6.21c0-3.43,3.134-6.21,7-6.21l0,0
		c3.866,0,7,2.78,7,6.21V48.79z"/>
</g>
</svg>
