<?xml version="1.0" encoding="utf-8"?>
<!-- Generator: Adobe Illustrator 16.0.0, SVG Export Plug-In . SVG Version: 6.00 Build 0)  -->
<!DOCTYPE svg PUBLIC "-//W3C//DTD SVG 1.1//EN" "http://www.w3.org/Graphics/SVG/1.1/DTD/svg11.dtd">
<svg version="1.1" id="website" xmlns="http://www.w3.org/2000/svg" xmlns:xlink="http://www.w3.org/1999/xlink" x="0px" y="0px"
	 width="113px" height="132px" viewBox="0 0 113 132" enable-background="new 0 0 113 132" xml:space="preserve">
<g id="tablet">
	<path fill="#F7BF14" d="M103.592,7.094c0-3.987-3.201-7.219-7.146-7.219h-79.89c-3.945,0-7.147,3.232-7.147,7.219v117.815
		c0,3.985,3.202,7.216,7.147,7.216h79.89c3.945,0,7.146-3.23,7.146-7.216V7.094z"/>
	<path fill="#FFF9E7" d="M50.259,128.376c-0.291,0-0.527,0.234-0.527,0.53l0,0c0,0.291,0.236,0.531,0.527,0.531H62.74
		c0.289,0,0.531-0.24,0.531-0.531l0,0c0-0.296-0.242-0.53-0.531-0.53H50.259z"/>
	<rect x="16.281" y="11.437" fill="#FFFFFF" width="80.44" height="114.823"/>
</g>
<path id="mobile" fill="#5B4203" d="M73.098,31.311H39.903c-2.766,0-5.029,2.281-5.029,5.071v64.934
	c0,2.793,2.264,5.074,5.029,5.071h33.195c2.77,0,5.029-2.282,5.029-5.071V36.382C78.127,33.591,75.863,31.311,73.098,31.311z
	 M47.616,34.14h17.767c0.652,0,1.182,0.534,1.182,1.191c0,0.658-0.529,1.192-1.182,1.192H47.616c-0.651,0-1.182-0.534-1.182-1.192
	C46.434,34.674,46.964,34.14,47.616,34.14z M51.37,102.824c-0.649,0-1.175-0.528-1.175-1.184c0-0.654,0.525-1.185,1.175-1.185
	c0.648,0,1.175,0.53,1.175,1.185C52.544,102.296,52.018,102.824,51.37,102.824z M56.5,104.604c-1.624,0-2.938-1.326-2.938-2.964
	c0-1.637,1.313-2.964,2.938-2.964c1.624,0,2.94,1.327,2.94,2.964C59.439,103.278,58.123,104.604,56.5,104.604z M61.631,102.824
	c-0.648,0-1.176-0.528-1.176-1.184c0-0.654,0.527-1.185,1.176-1.185s1.174,0.53,1.174,1.185
	C62.805,102.296,62.279,102.824,61.631,102.824z M74.629,97.005H38.373V39.353h36.256V97.005z"/>
</svg>
