<?xml version="1.0" encoding="utf-8"?>
<!-- Generator: Adobe Illustrator 16.0.0, SVG Export Plug-In . SVG Version: 6.00 Build 0)  -->
<!DOCTYPE svg PUBLIC "-//W3C//DTD SVG 1.1//EN" "http://www.w3.org/Graphics/SVG/1.1/DTD/svg11.dtd">
<svg version="1.1" id="website" xmlns="http://www.w3.org/2000/svg" xmlns:xlink="http://www.w3.org/1999/xlink" x="0px" y="0px"
	 width="113px" height="132px" viewBox="0 0 113 132" enable-background="new 0 0 113 132" xml:space="preserve">
<path fill="#FFFDF5" d="M1.677,19.758V126.92c0,1.869,1.217,3.383,2.715,3.383h105.892c1.499,0,2.716-1.514,2.716-3.383V19.758
	H1.677z"/>
<rect x="0.675" y="8.902" fill="#4E8259" width="111.322" height="12.829"/>
<path fill="#5B4203" d="M111.997,4.099c0-2.264-1.215-4.099-2.716-4.099H3.391C1.894,0,0.675,1.835,0.675,4.099v4.803h111.322V4.099
	z"/>
<rect x="5.861" y="11.137" fill="#FFFDF5" width="87.932" height="8.301"/>
<g>
	<g>
		<g>
			<g>
				<path fill="#3F5B66" d="M108.091,14.478c0-1.246-0.847-2.371-2.099-2.668c-0.207-0.049-0.417-0.073-0.621-0.073h-0.022v0
					c-1.228,0.011-2.329,0.861-2.621,2.118c-0.05,0.21-0.073,0.42-0.073,0.628c0,0.239,0.031,0.472,0.09,0.697l0.014,0.05
					l-0.15,0.104l-0.137,0.097l-2.673,1.91c-0.231,0.165-0.357,0.428-0.359,0.692l0.004,0.019l-0.004,0.007
					c0.004,0.166,0.056,0.333,0.158,0.478l0.092,0.133c0.165,0.235,0.43,0.361,0.692,0.361h0.002h0.002
					c0.168,0,0.343-0.052,0.487-0.158l0.12-0.084v0.001l2.278-1.627l0.118-0.083l0.46-0.326l0.043,0.027
					c0.257,0.169,0.544,0.297,0.861,0.373c0.209,0.049,0.415,0.072,0.622,0.072l0,0c1.23,0,2.345-0.85,2.641-2.109v0l0.002-0.009
					C108.067,14.896,108.091,14.687,108.091,14.478L108.091,14.478z M102.305,17.465l-0.042-0.062L102.305,17.465l-1.448,0.973
					c-0.092,0.062-0.198,0.092-0.302,0.092c-0.174,0-0.347-0.086-0.45-0.243c-0.063-0.094-0.092-0.2-0.092-0.305
					c0-0.177,0.084-0.35,0.243-0.456l1.444-0.973c0.092-0.062,0.198-0.092,0.303-0.092c0.174,0,0.348,0.085,0.45,0.244
					c0.063,0.093,0.093,0.199,0.093,0.303C102.546,17.186,102.461,17.359,102.305,17.465z M105.42,16.229
					c-0.992,0-1.794-0.811-1.796-1.812c0.002-1,0.804-1.811,1.796-1.811c0.991,0,1.795,0.811,1.795,1.811
					C107.215,15.418,106.411,16.229,105.42,16.229z"/>
			</g>
		</g>
	</g>
</g>
<rect x="98.933" y="2.868" fill="#CC4E4E" width="4.562" height="4.608"/>
<rect x="91.021" y="2.868" fill="#F7BF14" width="4.567" height="4.608"/>
<g id="text">
	<rect x="6.058" y="29.432" fill="#F7BF14" width="66.291" height="14.37"/>
	<rect x="79.894" y="32.765" fill="#F7BF14" width="27.079" height="5.072"/>
	<rect x="79.894" y="42.063" fill="#CC4E4E" width="27.079" height="5.071"/>
	<rect x="58.391" y="52.538" fill="#F7BF14" width="13.958" height="61.425"/>
	<rect x="79.894" y="55.87" fill="#F7BF14" width="27.079" height="24.515"/>
	<rect x="8.366" y="52.538" fill="#F7BF14" width="42.586" height="61.425"/>
	<rect x="79.894" y="92.781" fill="#CC4E4E" width="27.079" height="24.514"/>
</g>
<path fill="#5B4203" d="M108.962,1.559c1.485,0,2.69,1.514,2.69,3.382v3.961v10.856v1.973V126.92c0,1.869-1.205,3.383-2.69,3.383
	H4.038c-1.486,0-2.691-1.514-2.691-3.383V21.731v-1.973V8.902V4.94c0-1.868,1.205-3.382,2.691-3.382H108.962 M108.962-0.132H4.038
	c-2.226,0-4.037,2.274-4.037,5.072v3.961v10.856v1.973V126.92c0,2.799,1.812,5.072,4.037,5.072h104.924
	c2.226,0,4.037-2.273,4.037-5.072V21.731v-1.973V8.902V4.94C112.999,2.143,111.188-0.132,108.962-0.132L108.962-0.132z"/>
</svg>
